<svg xmlns="http://www.w3.org/2000/svg" width="91.882" height="60" viewBox="0 0 91.882 60"><defs><style>.a{fill:#bf9f41;}</style></defs><path class="a" d="M90.212,51.56H85.16a10.1,10.1,0,0,1-20.073,0H32.416a10.1,10.1,0,0,1-20.074,0H1.682A1.684,1.684,0,0,1,0,49.876V2.185A1.684,1.684,0,0,1,1.682.5H60.119A1.684,1.684,0,0,1,61.8,2.185v9.447H76.067a1.686,1.686,0,0,1,1.381.725l9.211,13.185,3.6,5.052,1.314,1.87a1.682,1.682,0,0,1,.3.96v16.4a1.685,1.685,0,0,1-1.668,1.734ZM75.157,56.612a6.736,6.736,0,1,0-6.737-6.735,6.82,6.82,0,0,0,6.737,6.82Zm-52.744,0a6.736,6.736,0,1,0-6.737-6.735,6.82,6.82,0,0,0,6.737,6.82ZM3.4,3.868V34.047H49.122a1.684,1.684,0,1,1,0,3.368H3.4V48.192h8.975a10.1,10.1,0,0,1,20.074,0H58.434V11.531H46.276a1.684,1.684,0,1,1,0-3.369H58.434V3.868ZM75.191,15H61.719V48.192h3.368a10.1,10.1,0,0,1,20.073,0h3.369V33.962l-.505-.724H67.478a1.683,1.683,0,0,1-1.684-1.683V19.093a1.684,1.684,0,0,1,1.684-1.684h9.431Zm4.075,5.81h-10.1V29.9H85.683Zm0,0" transform="translate(0.002 -0.501)"/></svg>