<svg xmlns="http://www.w3.org/2000/svg" width="17.272" height="18" viewBox="0 0 17.272 18"><defs><style>.a{fill:#bf9f41;}</style></defs><g transform="translate(-10.359 0.002)"><g transform="translate(10.359 -0.002)"><g transform="translate(0 0)"><path class="a" d="M26.8,9.231a.528.528,0,0,1,0-.466l.671-1.373a1.563,1.563,0,0,0-.674-2.075L25.445,4.6a.528.528,0,0,1-.274-.377l-.264-1.506a1.563,1.563,0,0,0-1.765-1.282l-1.514.214a.527.527,0,0,1-.443-.144L20.086.442a1.562,1.562,0,0,0-2.182,0L16.805,1.5a.528.528,0,0,1-.443.144l-1.514-.214a1.562,1.562,0,0,0-1.765,1.282l-.264,1.506a.528.528,0,0,1-.274.377l-1.35.716a1.563,1.563,0,0,0-.674,2.075l.671,1.373a.527.527,0,0,1,0,.466L10.52,10.6a1.563,1.563,0,0,0,.674,2.075l1.35.716a.528.528,0,0,1,.274.377l.264,1.506a1.562,1.562,0,0,0,1.54,1.3,1.605,1.605,0,0,0,.225-.016l1.514-.214a.527.527,0,0,1,.443.144l1.1,1.063a1.563,1.563,0,0,0,2.182,0l1.1-1.063a.528.528,0,0,1,.443-.144l1.514.214a1.562,1.562,0,0,0,1.765-1.282l.264-1.506a.528.528,0,0,1,.274-.377l1.35-.716a1.563,1.563,0,0,0,.674-2.075Zm-.489,2.531-1.35.716a1.559,1.559,0,0,0-.81,1.115L23.884,15.1a.529.529,0,0,1-.6.434l-1.514-.214a1.559,1.559,0,0,0-1.311.426l-1.1,1.063a.529.529,0,0,1-.738,0l-1.1-1.063A1.557,1.557,0,0,0,16.44,15.3a1.593,1.593,0,0,0-.223.016l-1.514.214a.529.529,0,0,1-.6-.434l-.264-1.506a1.559,1.559,0,0,0-.81-1.115l-1.35-.716a.529.529,0,0,1-.228-.7l.671-1.373a1.559,1.559,0,0,0,0-1.378l-.671-1.373a.529.529,0,0,1,.228-.7l1.35-.716a1.559,1.559,0,0,0,.81-1.115L14.106,2.9a.529.529,0,0,1,.6-.434l1.514.214a1.559,1.559,0,0,0,1.311-.426l1.1-1.063a.529.529,0,0,1,.738,0l1.1,1.063a1.559,1.559,0,0,0,1.311.426l1.514-.214a.529.529,0,0,1,.6.434L24.148,4.4a1.559,1.559,0,0,0,.81,1.115l1.35.716a.529.529,0,0,1,.228.7l-.671,1.373a1.559,1.559,0,0,0,0,1.378l.671,1.373A.529.529,0,0,1,26.308,11.763Z" transform="translate(-10.359 0.002)"/></g></g><g transform="translate(15.05 5.053)"><path class="a" d="M151.529,143.944a.519.519,0,0,0-.734,0l-6.851,6.852a.519.519,0,1,0,.734.734l6.851-6.851A.519.519,0,0,0,151.529,143.944Z" transform="translate(-143.791 -143.791)"/></g><g transform="translate(15.015 4.326)"><path class="a" d="M144.705,123.116a1.9,1.9,0,1,0,1.9,1.9A1.905,1.905,0,0,0,144.705,123.116Zm0,2.768a.865.865,0,1,1,.865-.865A.866.866,0,0,1,144.705,125.884Z" transform="translate(-142.802 -123.116)"/></g><g transform="translate(19.168 9.863)"><g transform="translate(0)"><path class="a" d="M262.825,280.61a1.9,1.9,0,1,0,1.9,1.9A1.905,1.905,0,0,0,262.825,280.61Zm0,2.768a.865.865,0,1,1,.865-.865A.866.866,0,0,1,262.825,283.378Z" transform="translate(-260.922 -280.61)"/></g></g></g></svg>