<svg xmlns="http://www.w3.org/2000/svg" width="18" height="18" viewBox="0 0 18 18"><defs><style>.a{fill:#fff;}</style></defs><g transform="translate(-11 -11)"><path class="a" d="M25.04,14.486a2.078,2.078,0,0,0,.555-1.418A2.051,2.051,0,0,0,23.563,11a6.423,6.423,0,0,0-3.571,2.4,6.5,6.5,0,0,0-3.556-2.362A2.053,2.053,0,0,0,14.405,13.1a2.079,2.079,0,0,0,.518,1.378H11v4.941h1.073V29H27.931V19.427H29V14.486Zm-1.477-2.718a1.292,1.292,0,0,1,1.264,1.341,1.339,1.339,0,0,1-1.036,1.319H20.683c-.2-.059-.261-.129-.261-.169C20.422,13.6,22.718,11.768,23.563,11.768Zm-7.127,0c.8,0,3.141,1.837,3.141,2.491,0,.059-.136.125-.235.169h-3.13a1.339,1.339,0,0,1-1.036-1.319,1.312,1.312,0,0,1,1.26-1.341ZM17.7,28.232H12.837V19.427H17.7Zm0-9.533H11.768V15.254H17.7V18.7Zm3.828,9.533H18.465V15.25h3.064Zm5.631,0H22.3V19.427H27.16ZM28.229,18.7H22.3V15.254h5.936V18.7Z" transform="translate(0 0)"/></g></svg>