<svg xmlns="http://www.w3.org/2000/svg" xmlns:xlink="http://www.w3.org/1999/xlink" width="348.171" height="249.999" viewBox="0 0 348.171 249.999"><defs><style>.a,.c{fill:#00bbb4;}.a,.e,.g,.k{opacity:0.1;}.b,.g,.h{fill:none;}.b{stroke:#535461;stroke-width:2px;}.b,.g{stroke-miterlimit:10;}.d{opacity:0.25;}.f{opacity:0.2;}.g{stroke:#000;}.i{opacity:0.15;}.j{opacity:0.3;}.l{fill:#fff;}.m{fill:#fbd56f;}.n{fill:url(#a);}.o{fill:#434175;}.p{fill:#565387;}.q{fill:#ee8e9e;}</style><linearGradient id="a" x1="0.5" y1="1" x2="0.5" gradientUnits="objectBoundingBox"><stop offset="0" stop-color="gray" stop-opacity="0.251"/><stop offset="0.54" stop-color="gray" stop-opacity="0.122"/><stop offset="1" stop-color="gray" stop-opacity="0.102"/></linearGradient></defs><g transform="translate(0 -0.055)"><ellipse class="a" cx="174.086" cy="21.161" rx="174.086" ry="21.161" transform="translate(0 207.732)"/><path class="b" d="M997.49,723.874s9.078-11.554,8.343-23.017a22.273,22.273,0,0,1,3.5-13.64,37.9,37.9,0,0,1,4.267-5.356" transform="translate(-699.617 -484.608)"/><path class="c" d="M1047.431,654.307c-.642,1.6.408,7.415.408,7.415s4.762-3.491,5.4-5.1a3.127,3.127,0,1,0-5.808-2.317Z" transform="translate(-733.862 -464.279)"/><path class="c" d="M1020.92,672.788c.333,1.694,4.36,6,4.36,6s2.1-5.518,1.766-7.216a3.129,3.129,0,0,0-6.138,1.215Z" transform="translate(-715.7 -475.788)"/><path class="c" d="M1000.554,718.58c1.146,1.3,6.808,2.974,6.808,2.974s-.975-5.824-2.121-7.119a3.128,3.128,0,1,0-4.687,4.145Z" transform="translate(-701.186 -506.311)"/><path class="c" d="M995.4,759.824c.909,1.47,6.2,4.083,6.2,4.083s.025-5.917-.884-7.375a3.128,3.128,0,1,0-5.319,3.292Z" transform="translate(-697.858 -535.005)"/><path class="c" d="M1037.9,695.856c-1.6.657-7.421-.311-7.421-.311s3.426-4.8,5.036-5.459a3.128,3.128,0,1,1,2.385,5.783Z" transform="translate(-722.333 -490.108)"/><path class="c" d="M1031.422,742.375c-1.719.153-6.982-2.526-6.982-2.526s4.715-3.553,6.437-3.706a3.126,3.126,0,0,1,.545,6.229Z" transform="translate(-718.174 -521.977)"/><path class="c" d="M1017.182,787.312c-1.672.439-7.312-1.311-7.312-1.311s4.048-4.3,5.721-4.74a3.128,3.128,0,0,1,1.591,6.051Z" transform="translate(-708.141 -552.981)"/><path class="d" d="M1047.431,654.307c-.642,1.6.408,7.415.408,7.415s4.762-3.491,5.4-5.1a3.127,3.127,0,1,0-5.808-2.317Z" transform="translate(-733.862 -464.279)"/><path class="d" d="M1020.92,672.788c.333,1.694,4.36,6,4.36,6s2.1-5.518,1.766-7.216a3.129,3.129,0,0,0-6.138,1.215Z" transform="translate(-715.7 -475.788)"/><path class="d" d="M1000.554,718.58c1.146,1.3,6.808,2.974,6.808,2.974s-.975-5.824-2.121-7.119a3.128,3.128,0,1,0-4.687,4.145Z" transform="translate(-701.186 -506.311)"/><path class="d" d="M995.4,759.824c.909,1.47,6.2,4.083,6.2,4.083s.025-5.917-.884-7.375a3.128,3.128,0,1,0-5.319,3.292Z" transform="translate(-697.858 -535.005)"/><path class="d" d="M1037.9,695.856c-1.6.657-7.421-.311-7.421-.311s3.426-4.8,5.036-5.459a3.128,3.128,0,1,1,2.385,5.783Z" transform="translate(-722.333 -490.108)"/><path class="d" d="M1031.422,742.375c-1.719.153-6.982-2.526-6.982-2.526s4.715-3.553,6.437-3.706a3.126,3.126,0,0,1,.545,6.229Z" transform="translate(-718.174 -521.977)"/><path class="d" d="M1017.182,787.312c-1.672.439-7.312-1.311-7.312-1.311s4.048-4.3,5.721-4.74a3.128,3.128,0,0,1,1.591,6.051Z" transform="translate(-708.141 -552.981)"/><path class="b" d="M997.73,744.737s12.983-6.882,16.957-17.658a22.279,22.279,0,0,1,8.72-11.052,37.464,37.464,0,0,1,6.073-3.167" transform="translate(-699.782 -505.954)"/><path class="c" d="M1102.062,689.14c-1.246,1.208-2.631,6.945-2.631,6.945s5.767-1.264,7-2.47a3.124,3.124,0,1,0-4.36-4.475Z" transform="translate(-769.81 -489.01)"/><path class="c" d="M1074.191,695.309c-.38,1.685,1.557,7.262,1.557,7.262s4.154-4.2,4.534-5.883a3.127,3.127,0,0,0-6.1-1.38Z" transform="translate(-752.397 -492.189)"/><path class="c" d="M1036.907,728.912c.52,1.647,5.017,5.478,5.017,5.478s1.467-5.721.934-7.368a3.128,3.128,0,1,0-5.964,1.89Z" transform="translate(-726.649 -514.201)"/><path class="c" d="M1015.511,764.53c.237,1.713,4.02,6.247,4.02,6.247s2.414-5.391,2.18-7.1a3.128,3.128,0,1,0-6.2.853Z" transform="translate(-712.008 -539.084)"/><path class="c" d="M1078.585,726.022c-1.729-.044-6.655-3.3-6.655-3.3s5.092-3,6.817-2.952a3.128,3.128,0,0,1-.162,6.253Z" transform="translate(-750.874 -510.71)"/><path class="c" d="M1055.573,766.454c-1.635-.557-5.363-5.138-5.363-5.138s5.752-1.339,7.387-.779a3.127,3.127,0,0,1-2.024,5.917Z" transform="translate(-735.919 -538.688)"/><path class="c" d="M1023.341,801.555c-1.7-.274-6.151-4.161-6.151-4.161s5.444-2.289,7.163-2.015a3.128,3.128,0,1,1-1,6.176Z" transform="translate(-713.182 -562.759)"/><path class="a" d="M333.4,78.237c-17.2-.6-33.587-6.151-49.23-12.226S253.03,53.2,236.238,50c-10.8-2.071-23.148-2.364-31.849,3.426-8.368,5.556-11.077,15.173-12.532,24.1-1.1,6.714-1.741,13.78,1.246,20.065,2.083,4.36,5.78,8.035,8.337,12.214,8.894,14.543,2.607,32.478-7.032,46.682-4.522,6.661-9.766,13.014-13.257,20.109s-5.1,15.216-2.049,22.451c3.027,7.163,10.236,12.557,18.047,16.344,15.864,7.7,34.568,9.9,52.789,11.143,40.354,2.762,80.923,1.557,121.383.367,14.976-.442,30.015-.891,44.745-3.2,8.181-1.286,16.627-3.329,22.563-8.256,7.54-6.253,9.408-16.845,4.36-24.687-8.474-13.155-31.9-16.421-37.825-30.538-3.258-7.77.09-16.424,4.827-23.631,10.162-15.462,27.2-29.025,28.1-46.695.623-12.146-7.574-24.291-20.243-30.034-13.273-6.017-31.678-5.26-41.469,4.7C366.311,74.818,348.591,78.764,333.4,78.237Z" transform="translate(-134.982 -48.59)"/><path class="c" d="M616.875,344.3H609.13a16.554,16.554,0,0,1,.112-1.788c.243-2.111.99-5.537,3.307-7.144a2.592,2.592,0,0,1,3.877,3.158l-.028.065a5.261,5.261,0,0,0-.29,2.93,12.271,12.271,0,0,0,.766,2.778Z" transform="translate(-432.201 -245.692)"/><path class="e" d="M616.875,358.886H609.13a16.552,16.552,0,0,1,.112-1.788,16.213,16.213,0,0,1,6.851-.99A12.27,12.27,0,0,0,616.875,358.886Z" transform="translate(-432.201 -260.274)"/><path class="c" d="M606.522,367.772c-2.009,1.635-4.818,1.66-7.692.959-5.886-1.439-12.03-5.942-12.03-5.942a13.74,13.74,0,0,1,1.345-1.3,17.214,17.214,0,0,1,15.409-3.93,7.611,7.611,0,0,1,4.5,3.008C609.285,362.365,609.926,365,606.522,367.772Z" transform="translate(-416.825 -260.96)"/><path class="e" d="M618.988,377.871s-4.478-3.815-10.648,1.246" transform="translate(-431.657 -274.338)"/><path class="c" d="M204.42,472.494s-14.431-11.105-15.157-1.037,2.906,19.517,6.02,20.345S204.42,472.494,204.42,472.494Z" transform="translate(-143.026 -336.823)"/><path class="f" d="M204.42,472.494s-14.431-11.105-15.157-1.037,2.906,19.517,6.02,20.345S204.42,472.494,204.42,472.494Z" transform="translate(-143.026 -336.823)"/><path class="e" d="M207.8,495.46s.339,9.265,3.22,7.786S209.669,495.874,207.8,495.46Z" transform="translate(-155.855 -356.257)"/><path class="c" d="M296.2,720.725a16.926,16.926,0,0,1-1.557,4.1c-.177.336-.371.682-.582,1.034-3.4,5.649-11.252,7.994-11.252,6.748s-.775-4.466-2.75-3.531a12.1,12.1,0,0,1-4.983.729c-5.434-.414-4.516-5.771-2.716-10.308a41.788,41.788,0,0,1,2.049-4.36c.679-1.246,1.187-2.062,1.187-2.062l20.763,3.323A9.474,9.474,0,0,1,296.2,720.725Z" transform="translate(-199.345 -506.098)"/><path class="e" d="M598.83,378.514c-5.886-1.439-12.03-5.942-12.03-5.942a13.736,13.736,0,0,1,1.345-1.3q1.345.71,2.7,1.51A51.385,51.385,0,0,1,598.83,378.514Z" transform="translate(-416.825 -270.743)"/><path class="e" d="M303.8,720.759a67.4,67.4,0,0,1-21.8-5.578c.679-1.246,1.187-2.062,1.187-2.062l20.763,3.323A9.294,9.294,0,0,1,303.8,720.759Z" transform="translate(-206.947 -506.133)"/><path class="c" d="M332.964,443.182a40.232,40.232,0,0,1-4.129,14.176,35.948,35.948,0,0,1-12.9,14.475s-3.32,2.7-3.528-4.774c0,0-1.454-1.557-11.42,5.247,0,0-6.014,3.675-4.36-11.657v-.028c0-.009-.15.1-.424.262h-.019c-.71.436-2.217,1.33-4.011,2.23-3.286,1.651-7.543,3.329-9.654,2.27a31.766,31.766,0,0,1-3.532,11.084,18.706,18.706,0,0,1-10.564,9.215,7.427,7.427,0,0,1-7.536-1.837l-.592-.592s-4.569,3.114-6.851,2.074-4.154-3.943-1.04-9.343c0,0,.165-.448.367-1.106.508-1.666,1.246-4.671.05-5.123,0,0-48.376,2.491-54.81-40.485s36.125-58.753,48.165-57.093c0,0,31.974-40.276,76.2-14.325S332.964,443.182,332.964,443.182Z" transform="translate(-148.663 -255.502)"/><path class="g" d="M354.13,423.12s52.7-.206,49.083,68.1" transform="translate(-256.614 -306.445)"/><path class="f" d="M294.641,739.018c-.177.336-.371.682-.582,1.034-3.4,5.649-11.252,7.994-11.252,6.749s-.775-4.466-2.75-3.532a12.1,12.1,0,0,1-4.983.729c-5.434-.414-4.516-5.771-2.716-10.308C277.453,736.247,286.668,740.055,294.641,739.018Z" transform="translate(-199.345 -520.297)"/><path class="f" d="M397.084,754.488A18.706,18.706,0,0,1,386.52,763.7a7.428,7.428,0,0,1-7.536-1.837l-.592-.592s-4.569,3.114-6.851,2.074-4.154-3.943-1.04-9.343c0,0,.165-.448.367-1.106C374.939,754.336,385.72,757.391,397.084,754.488Z" transform="translate(-266.756 -533.524)"/><path class="e" d="M516.13,668.332c18.788-9.757,22.008-17.542,22.008-17.542" transform="translate(-368.163 -463.214)"/><path class="f" d="M547.7,696.64a35.947,35.947,0,0,1-12.9,14.475s-3.32,2.7-3.528-4.774c0,0-1.454-1.557-11.42,5.247,0,0-6.014,3.675-4.36-11.657l4.983-2.762C531.214,703.139,542,699.5,547.7,696.64Z" transform="translate(-367.527 -494.785)"/><path class="c" d="M372.14,415.713s10.588-16.194,18.579-11.108-1.451,24.082-1.451,24.082S373.591,428.375,372.14,415.713Z" transform="translate(-269.015 -293.015)"/><path class="f" d="M372.14,415.713s10.588-16.194,18.579-11.108-1.451,24.082-1.451,24.082S373.591,428.375,372.14,415.713Z" transform="translate(-269.015 -293.015)"/><path class="e" d="M404.333,428.12s-13.911,6.749-9.654,10.694S404.333,428.12,404.333,428.12Z" transform="translate(-283.977 -309.888)"/><path class="h" d="M466.152,363.466a57.8,57.8,0,0,0-10.51,1.869l-.1.028c-4.871,1.355-10.4,3.634-14.2,7.437,0,0-8.823-3.737-11.211-3.114,0,0,7.163-8.7,26.424-8.925h.047A29.821,29.821,0,0,1,466.152,363.466Z" transform="translate(-308.946 -263.506)"/><ellipse class="e" cx="19.43" cy="16.091" rx="19.43" ry="16.091" transform="matrix(0.974, -0.225, 0.225, 0.974, 60.654, 156.961)"/><ellipse class="c" cx="19.43" cy="16.091" rx="19.43" ry="16.091" transform="matrix(0.974, -0.225, 0.225, 0.974, 60.654, 156.338)"/><ellipse class="f" cx="19.43" cy="16.091" rx="19.43" ry="16.091" transform="matrix(0.974, -0.225, 0.225, 0.974, 60.654, 156.338)"/><path class="e" d="M281.8,586.78s.209,6.023,1.974,4.26S283.877,586.774,281.8,586.78Z" transform="translate(-206.809 -419.138)"/><path class="e" d="M314.14,572.06s.206,6.023,1.971,4.26S316.214,572.041,314.14,572.06Z" transform="translate(-229.078 -409.002)"/><path class="e" d="M368.86,679.12s4.341,4.257,9.635-1.66" transform="translate(-266.757 -481.578)"/><path class="i" d="M430.13,369.715c2.389-.623,11.211,3.114,11.211,3.114,3.8-3.8,9.343-6.082,14.2-7.437l1.015-4.6C437.28,361.011,430.13,369.715,430.13,369.715Z" transform="translate(-308.946 -263.526)"/><path class="j" d="M513.009,360.79l-.959,4.575a57.807,57.807,0,0,1,10.511-1.869A29.544,29.544,0,0,0,513.009,360.79Z" transform="translate(-365.354 -263.526)"/><path class="i" d="M512.769,360.79l-1.009,4.6.1-.028.959-4.575Z" transform="translate(-365.154 -263.526)"/><g class="k" transform="translate(48.692 116.651)"><path class="l" d="M372.672,748.938s.165-.448.367-1.106c.508-1.666,1.246-4.671.05-5.123,0,0-.554.028-1.557.025a15.426,15.426,0,0,1-.676,3.229c-.2.657-.367,1.106-.367,1.106-3.114,5.4-1.246,8.306,1.04,9.343l.121.044C370.732,754.884,370.657,752.433,372.672,748.938Z" transform="translate(-315.44 -643.158)"/><path class="l" d="M200.193,482.11c-6.437-42.976,37.5-60.441,49.535-58.769l-3.55-.181c-12.04-1.66-54.6,14.117-48.165,57.093,2.024,13.513,8.2,22.528,15.705,28.542C207.21,502.816,202.018,494.289,200.193,482.11Z" transform="translate(-197.355 -423.043)"/><path class="l" d="M517.658,713.407v-.028c0-.009-.149.1-.424.262h-.019c-.42.255-1.121.676-1.993,1.162-.311,7.085,1.523,8.62,2.965,8.754C517.456,721.9,517.073,718.866,517.658,713.407Z" transform="translate(-416.207 -622.961)"/><path class="l" d="M569.324,733.716s-.374-.4-2.024.093c.43,3.089,1.619,3.426,2.466,3.242A13.074,13.074,0,0,1,569.324,733.716Z" transform="translate(-452.09 -636.861)"/></g><path class="e" d="M375.47,726.81s26.991-1.66,29.688-4.36" transform="translate(-271.308 -512.557)"/><ellipse class="m" cx="11.697" cy="12.416" rx="11.697" ry="12.416" transform="translate(157.269 194.571)"/><ellipse class="e" cx="11.697" cy="12.416" rx="11.697" ry="12.416" transform="translate(157.269 194.571)"/><ellipse class="m" cx="11.697" cy="12.139" rx="11.697" ry="12.139" transform="translate(159.287 195.125)"/><path class="m" d="M601.638,747.222l-1.218-.676a14.694,14.694,0,0,0-.383,4.067.844.844,0,0,0,.623.729c2.8.695,16.138,3.656,25.313-.517a.835.835,0,0,0,.486-.676,12.514,12.514,0,0,0-.442-3.6C625.683,745.646,601.638,747.222,601.638,747.222Z" transform="translate(-425.914 -528.958)"/><path class="e" d="M601.638,747.222l-1.218-.676a14.694,14.694,0,0,0-.383,4.067.844.844,0,0,0,.623.729c2.8.695,16.138,3.656,25.313-.517a.835.835,0,0,0,.486-.676,12.514,12.514,0,0,0-.442-3.6C625.683,745.646,601.638,747.222,601.638,747.222Z" transform="translate(-425.914 -528.958)"/><ellipse class="m" cx="12.803" cy="2.887" rx="12.803" ry="2.887" transform="translate(174.506 214.701)"/><path class="m" d="M617.384,733.552l-1.215-.676a14.692,14.692,0,0,0-.383,4.067.838.838,0,0,0,.623.726c2.8.7,16.138,3.659,25.313-.514a.841.841,0,0,0,.486-.676,12.606,12.606,0,0,0-.445-3.6C641.417,731.976,617.384,733.552,617.384,733.552Z" transform="translate(-436.759 -519.545)"/><path class="e" d="M617.384,733.552l-1.215-.676a14.692,14.692,0,0,0-.383,4.067.838.838,0,0,0,.623.726c2.8.7,16.138,3.659,25.313-.514a.841.841,0,0,0,.486-.676,12.606,12.606,0,0,0-.445-3.6C641.417,731.976,617.384,733.552,617.384,733.552Z" transform="translate(-436.759 -519.545)"/><ellipse class="m" cx="12.803" cy="2.887" rx="12.803" ry="2.887" transform="translate(179.395 210.444)"/><path class="m" d="M631.227,715.582l-1.218-.676a14.694,14.694,0,0,0-.383,4.067.844.844,0,0,0,.623.729c2.8.694,16.141,3.656,25.313-.517a.844.844,0,0,0,.489-.676,12.607,12.607,0,0,0-.445-3.6C655.272,714.006,631.227,715.582,631.227,715.582Z" transform="translate(-446.289 -507.171)"/><path class="e" d="M631.227,715.582l-1.218-.676a14.694,14.694,0,0,0-.383,4.067.844.844,0,0,0,.623.729c2.8.694,16.141,3.656,25.313-.517a.844.844,0,0,0,.489-.676,12.607,12.607,0,0,0-.445-3.6C655.272,714.006,631.227,715.582,631.227,715.582Z" transform="translate(-446.289 -507.171)"/><ellipse class="m" cx="12.803" cy="2.887" rx="12.803" ry="2.887" transform="translate(183.721 204.848)"/><path class="m" d="M615.85,696.883l-1.218-.679a14.844,14.844,0,0,0-.383,4.067.847.847,0,0,0,.623.729c2.8.694,16.138,3.656,25.309-.514a.841.841,0,0,0,.489-.676,12.646,12.646,0,0,0-.445-3.606C639.895,695.3,615.85,696.883,615.85,696.883Z" transform="translate(-435.701 -494.293)"/><path class="e" d="M615.85,696.883l-1.218-.679a14.844,14.844,0,0,0-.383,4.067.847.847,0,0,0,.623.729c2.8.694,16.138,3.656,25.309-.514a.841.841,0,0,0,.489-.676,12.646,12.646,0,0,0-.445-3.606C639.895,695.3,615.85,696.883,615.85,696.883Z" transform="translate(-435.701 -494.293)"/><ellipse class="m" cx="12.803" cy="2.887" rx="12.803" ry="2.887" transform="translate(178.931 199.021)"/><path class="m" d="M650.444,681.88l-1.214-.679a14.71,14.71,0,0,0-.383,4.067.841.841,0,0,0,.623.729c2.8.694,16.138,3.656,25.309-.514a.847.847,0,0,0,.489-.676,12.627,12.627,0,0,0-.445-3.606C674.489,680.3,650.444,681.88,650.444,681.88Z" transform="translate(-459.523 -483.961)"/><path class="e" d="M650.444,681.88l-1.214-.679a14.71,14.71,0,0,0-.383,4.067.841.841,0,0,0,.623.729c2.8.694,16.138,3.656,25.309-.514a.847.847,0,0,0,.489-.676,12.627,12.627,0,0,0-.445-3.606C674.489,680.3,650.444,681.88,650.444,681.88Z" transform="translate(-459.523 -483.961)"/><ellipse class="m" cx="12.803" cy="2.887" rx="12.803" ry="2.887" transform="translate(189.704 194.347)"/><path class="m" d="M627.07,671.776l-1.218-.679a14.845,14.845,0,0,0-.383,4.067.847.847,0,0,0,.623.729c2.8.694,16.138,3.656,25.309-.514a.841.841,0,0,0,.489-.676,12.632,12.632,0,0,0-.445-3.606C651.115,670.2,627.07,671.776,627.07,671.776Z" transform="translate(-443.426 -477.005)"/><path class="e" d="M627.07,671.776l-1.218-.679a14.845,14.845,0,0,0-.383,4.067.847.847,0,0,0,.623.729c2.8.694,16.138,3.656,25.309-.514a.841.841,0,0,0,.489-.676,12.632,12.632,0,0,0-.445-3.606C651.115,670.2,627.07,671.776,627.07,671.776Z" transform="translate(-443.426 -477.005)"/><ellipse class="m" cx="12.803" cy="2.887" rx="12.803" ry="2.887" transform="translate(182.426 191.204)"/><path class="m" d="M642.674,652.3l-1.215-.679a14.712,14.712,0,0,0-.383,4.067.841.841,0,0,0,.623.729c2.8.694,16.138,3.656,25.313-.514a.838.838,0,0,0,.486-.676,12.645,12.645,0,0,0-.445-3.606C666.722,650.717,642.674,652.3,642.674,652.3Z" transform="translate(-454.173 -463.592)"/><path class="e" d="M642.674,652.3l-1.215-.679a14.712,14.712,0,0,0-.383,4.067.841.841,0,0,0,.623.729c2.8.694,16.138,3.656,25.313-.514a.838.838,0,0,0,.486-.676,12.645,12.645,0,0,0-.445-3.606C666.722,650.717,642.674,652.3,642.674,652.3Z" transform="translate(-454.173 -463.592)"/><ellipse class="m" cx="12.803" cy="2.887" rx="12.803" ry="2.887" transform="translate(187.287 185.138)"/><path class="m" d="M650.38,629.176l-1.218-.679a14.842,14.842,0,0,0-.383,4.067.847.847,0,0,0,.623.729c2.8.694,16.138,3.656,25.309-.514a.841.841,0,0,0,.489-.676,12.645,12.645,0,0,0-.445-3.606C674.422,627.6,650.38,629.176,650.38,629.176Z" transform="translate(-459.477 -447.672)"/><path class="e" d="M650.38,629.176l-1.218-.679a14.842,14.842,0,0,0-.383,4.067.847.847,0,0,0,.623.729c2.8.694,16.138,3.656,25.309-.514a.841.841,0,0,0,.489-.676,12.645,12.645,0,0,0-.445-3.606C674.422,627.6,650.38,629.176,650.38,629.176Z" transform="translate(-459.477 -447.672)"/><ellipse class="m" cx="12.803" cy="2.887" rx="12.803" ry="2.887" transform="translate(189.682 177.938)"/><path class="m" d="M719.768,752.586l-1.218-.679a14.708,14.708,0,0,0-.383,4.067.844.844,0,0,0,.623.729c2.8.694,16.138,3.656,25.313-.514a.844.844,0,0,0,.486-.679,12.506,12.506,0,0,0-.442-3.6C743.813,751.007,719.768,752.586,719.768,752.586Z" transform="translate(-507.255 -532.649)"/><path class="e" d="M719.768,752.586l-1.218-.679a14.708,14.708,0,0,0-.383,4.067.844.844,0,0,0,.623.729c2.8.694,16.138,3.656,25.313-.514a.844.844,0,0,0,.486-.679,12.506,12.506,0,0,0-.442-3.6C743.813,751.007,719.768,752.586,719.768,752.586Z" transform="translate(-507.255 -532.649)"/><ellipse class="m" cx="12.803" cy="2.887" rx="12.803" ry="2.887" transform="translate(211.294 216.371)"/><path class="m" d="M733.65,734.616l-1.218-.679a14.843,14.843,0,0,0-.383,4.067.847.847,0,0,0,.623.729c2.8.694,16.138,3.656,25.309-.514a.841.841,0,0,0,.489-.676,12.628,12.628,0,0,0-.445-3.606C757.695,733.037,733.65,734.616,733.65,734.616Z" transform="translate(-516.815 -520.276)"/><path class="e" d="M733.65,734.616l-1.218-.679a14.843,14.843,0,0,0-.383,4.067.847.847,0,0,0,.623.729c2.8.694,16.138,3.656,25.309-.514a.841.841,0,0,0,.489-.676,12.628,12.628,0,0,0-.445-3.606C757.695,733.037,733.65,734.616,733.65,734.616Z" transform="translate(-516.815 -520.276)"/><ellipse class="m" cx="12.803" cy="2.887" rx="12.803" ry="2.887" transform="translate(215.617 210.774)"/><path class="m" d="M718.274,715.908l-1.215-.676a14.692,14.692,0,0,0-.383,4.067.838.838,0,0,0,.623.726c2.8.7,16.138,3.659,25.313-.514a.835.835,0,0,0,.486-.676,12.606,12.606,0,0,0-.445-3.6C742.323,714.351,718.274,715.908,718.274,715.908Z" transform="translate(-506.229 -507.401)"/><path class="e" d="M718.274,715.908l-1.215-.676a14.692,14.692,0,0,0-.383,4.067.838.838,0,0,0,.623.726c2.8.7,16.138,3.659,25.313-.514a.835.835,0,0,0,.486-.676,12.606,12.606,0,0,0-.445-3.6C742.323,714.351,718.274,715.908,718.274,715.908Z" transform="translate(-506.229 -507.401)"/><ellipse class="m" cx="12.803" cy="2.887" rx="12.803" ry="2.887" transform="translate(210.83 204.951)"/><path class="m" d="M752.868,700.892l-1.218-.676a14.626,14.626,0,0,0-.383,4.049.841.841,0,0,0,.623.729c2.8.7,16.138,3.656,25.313-.514a.835.835,0,0,0,.486-.676,12.619,12.619,0,0,0-.442-3.6C776.912,699.335,752.868,700.892,752.868,700.892Z" transform="translate(-530.047 -497.056)"/><path class="e" d="M752.868,700.892l-1.218-.676a14.626,14.626,0,0,0-.383,4.049.841.841,0,0,0,.623.729c2.8.7,16.138,3.656,25.313-.514a.835.835,0,0,0,.486-.676,12.619,12.619,0,0,0-.442-3.6C776.912,699.335,752.868,700.892,752.868,700.892Z" transform="translate(-530.047 -497.056)"/><ellipse class="m" cx="12.803" cy="2.887" rx="12.803" ry="2.887" transform="translate(221.603 200.276)"/><path class="m" d="M729.494,690.812l-1.215-.676a14.691,14.691,0,0,0-.383,4.067.841.841,0,0,0,.623.726c2.8.7,16.138,3.656,25.313-.514a.835.835,0,0,0,.486-.676,12.606,12.606,0,0,0-.445-3.6C753.542,689.236,729.494,690.812,729.494,690.812Z" transform="translate(-513.955 -490.115)"/><path class="e" d="M729.494,690.812l-1.215-.676a14.691,14.691,0,0,0-.383,4.067.841.841,0,0,0,.623.726c2.8.7,16.138,3.656,25.313-.514a.835.835,0,0,0,.486-.676,12.606,12.606,0,0,0-.445-3.6C753.542,689.236,729.494,690.812,729.494,690.812Z" transform="translate(-513.955 -490.115)"/><ellipse class="m" cx="12.803" cy="2.887" rx="12.803" ry="2.887" transform="translate(214.325 197.134)"/><path class="m" d="M745.1,671.332l-1.218-.676a14.7,14.7,0,0,0-.383,4.067.844.844,0,0,0,.623.729c2.8.694,16.138,3.656,25.309-.517a.844.844,0,0,0,.489-.676,12.606,12.606,0,0,0-.445-3.6C769.142,669.756,745.1,671.332,745.1,671.332Z" transform="translate(-524.697 -476.702)"/><path class="e" d="M745.1,671.332l-1.218-.676a14.7,14.7,0,0,0-.383,4.067.844.844,0,0,0,.623.729c2.8.694,16.138,3.656,25.309-.517a.844.844,0,0,0,.489-.676,12.606,12.606,0,0,0-.445-3.6C769.142,669.756,745.1,671.332,745.1,671.332Z" transform="translate(-524.697 -476.702)"/><ellipse class="m" cx="12.803" cy="2.887" rx="12.803" ry="2.887" transform="translate(219.183 191.067)"/><path class="m" d="M752.794,648.212l-1.215-.676a14.7,14.7,0,0,0-.383,4.067.844.844,0,0,0,.623.729c2.8.694,16.138,3.656,25.313-.517a.835.835,0,0,0,.486-.676,12.608,12.608,0,0,0-.445-3.6C776.842,646.636,752.794,648.212,752.794,648.212Z" transform="translate(-529.999 -460.782)"/><path class="e" d="M752.794,648.212l-1.215-.676a14.7,14.7,0,0,0-.383,4.067.844.844,0,0,0,.623.729c2.8.694,16.138,3.656,25.313-.517a.835.835,0,0,0,.486-.676,12.608,12.608,0,0,0-.445-3.6C776.842,646.636,752.794,648.212,752.794,648.212Z" transform="translate(-529.999 -460.782)"/><ellipse class="m" cx="12.803" cy="2.887" rx="12.803" ry="2.887" transform="translate(221.581 183.867)"/><path class="m" d="M445.138,334.92a11.93,11.93,0,0,1,11.7-12.146,11.472,11.472,0,0,1,1.89.159,11.061,11.061,0,0,0-3.911-.713c-6.459,0-11.694,5.559-11.694,12.416a12.452,12.452,0,0,0,7.163,11.448c.2-.177.455-.389.754-.623A12.22,12.22,0,0,1,445.138,334.92Z" transform="translate(-317.89 -236.968)"/><path class="e" d="M445.138,334.92a11.93,11.93,0,0,1,11.7-12.146,11.472,11.472,0,0,1,1.89.159,11.061,11.061,0,0,0-3.911-.713c-6.459,0-11.694,5.559-11.694,12.416a12.452,12.452,0,0,0,7.163,11.448c.2-.177.455-.389.754-.623A12.22,12.22,0,0,1,445.138,334.92Z" transform="translate(-317.89 -236.968)"/><path class="m" d="M501.016,336.253a13.138,13.138,0,0,1-.623,3.989c.71-.171,1.451-.311,2.214-.473a12.6,12.6,0,0,0,.427-3.251,12.015,12.015,0,0,0-9.8-11.977A12.415,12.415,0,0,1,501.016,336.253Z" transform="translate(-352.395 -238.565)"/><path class="m" d="M449.6,336.166a12.22,12.22,0,0,0,5.9,10.545,38.116,38.116,0,0,1,14.852-6.829,13.14,13.14,0,0,0,.623-3.989,12.393,12.393,0,0,0-7.786-11.7,11.473,11.473,0,0,0-1.89-.159A11.934,11.934,0,0,0,449.6,336.166Z" transform="translate(-322.352 -238.214)"/><path class="n" d="M822.113,476.847c-1.781-.062-1.847-.754-4.136-1.946a23.681,23.681,0,0,1-4.721-4.2l-.343-.371h.623s-.573-5.023-.062-6.228.128-8.29.128-8.29.312-5.4-.255-6.658.19-9.293.19-9.293.511-4.774.623-14.509-5.606-10.047-5.606-10.047-.763-.059-1.922-.171l-.349-.034c.751-1.557,1.19-2.747,1.19-2.747s-.956-9.106-1.211-10.676-1.778-8.05-1.778-8.05-1.081-2.762-1.719-4.709a15.967,15.967,0,0,0-2.544-4.207s-3.426-6.783-4.391-7.786c-.442-.464-1.065-1.053-1.6-1.557l-.28-.255a11.2,11.2,0,0,0,.23-2.149s-3.566-3.519-3.821-4.4-3.625-4.145-3.625-4.145-1.912-3.516-4.073-3.578a17.646,17.646,0,0,0-3.068.09c.445-1.644.972-3.367,1.442-4.846.053-.165.106-.311.156-.483a10.919,10.919,0,0,0,3.911-4.731c.044-.1.084-.206.125-.311h.068a1.9,1.9,0,0,0,.268-.025c.713-.121,1.317-.934.987-1.557a.237.237,0,0,0,.209.115c.237,0,.526-.352.582-.654a1.378,1.378,0,0,1,.022-.159c.006-.053.022-.131.031-.2a1.256,1.256,0,0,0,0-.187v-.744a1.281,1.281,0,0,0-.019-.252v-.1h0a5.6,5.6,0,0,0-.206-1.012c-.349-1.168-1.087-2.326-.8-3.51v-.037h0a10.054,10.054,0,0,1,1.52-2.41c.047-.078.087-.159.128-.24,0-.016.016-.031.022-.044.031-.062.056-.125.081-.187l.05-.121c.022-.053.037-.109.056-.165s.034-.1.047-.153.025-.1.037-.15.028-.118.04-.181,0-.087.022-.131a.775.775,0,0,0,.025-.206.651.651,0,0,0,0-.112v-.654a1,1,0,0,0-.025-.271v-.037h0a4.513,4.513,0,0,0-.912-2.164,5.578,5.578,0,0,0-4.581-1.984,7.662,7.662,0,0,1-1.439.028,4.74,4.74,0,0,1-2.112-1.115l-5.332-4.108a6.626,6.626,0,0,0-2.015-1.2,2.249,2.249,0,0,0-2.214.4c-1,.984-.364,2.678-.763,4.014a3.9,3.9,0,0,1-2.622,2.333c-1.155.389-2.395.476-3.584.76a1.958,1.958,0,0,0-.956.439,1.868,1.868,0,0,0-.417,1.336,7.181,7.181,0,0,0,.828,3.4c.224.424.5.856.735,1.292l.059.109.078.149c.04.084.081.165.118.246l.047.106.072.177a.356.356,0,0,0,.04.109c.012.034.044.14.065.209a2.311,2.311,0,0,1,.034,1.246,4.616,4.616,0,0,1-1.177,1.722,3.384,3.384,0,0,0-.785,1.457h0a1.094,1.094,0,0,0,0,.386v.047a.875.875,0,0,0,.025.084.468.468,0,0,0,.025.059.6.6,0,0,0,.031.065.585.585,0,0,0,.081.093l.047.034a.51.51,0,0,0,.081.05l.053.025.131.034h.037a1.443,1.443,0,0,0,.205,0h.062A1.556,1.556,0,0,0,762.5,347h.072a2.709,2.709,0,0,0,.311-.078,6.58,6.58,0,0,0,1.04-.411v.315a10.572,10.572,0,0,0,.688,3.6,10.9,10.9,0,0,0,3.317,4.587c-.019.106-.037.215-.059.327-.311,1.5-.95,3.015-1.345,2.9a5.317,5.317,0,0,0-1.18-.131H765a4.8,4.8,0,0,0-1.084,0,1.14,1.14,0,0,1-.473-.065,6.44,6.44,0,0,0-3.18-.178c-2.2.452-5.546,1.277-6.465,2.264-1.4,1.507-3.426,2.952-5.727,9.231,0,0-1.146,3.831-2.037,4.335a6,6,0,0,1,.6-.274,1.624,1.624,0,0,1-.476.523,7.05,7.05,0,0,1,1-.417c-.694,4.092.336,15.8.336,15.8s-.828,2.018.252,3.214a6.031,6.031,0,0,1,1.174,2.6l-.159.243h0c-.573.888-1.339,2.046-1.841,2.684-.891,1.13-.638,4.712-.638,4.712a4.989,4.989,0,0,1-.825,2.323c-.635.629-.511,2.952-.511,2.952l-1.629,6.132s-1.529,1.38-1.529,2.009a8.234,8.234,0,0,1-1.208,2.385s-1.847,3.015,0,2.575a5.77,5.77,0,0,0,1.869-.934v.383c-.053,3.282.311,7.9,2.728,7.9,3.737,0,13.429,4.456,13.429,4.456a6.484,6.484,0,0,0,4.643,1.006s-4.731,4.7-4.593,6.649-2.672,5.148-2.672,5.148l-8.658,16.895a12.89,12.89,0,0,0,.623,3.463l-.125.106c-3.326,3.039-3.616,9.053-3.616,9.053l-.763,3.077,11.582,5.089s15.02.311,17.63-.377,2.037-3.581-1.4-4.145-4.263-2.074-5.409-2.762a54.548,54.548,0,0,1-5.219-5.388c-.025-.031-.05-.056-.075-.084l.4-2.18c.763-.377,1.909-4.145,1.909-4.145s0-1.507.763-1.946,2.354-4.961,2.354-4.961,3.426-5.715,3.248-6.468,2.491-4.584,2.491-4.584,4.519-4.4,4.326-5.182,3.628-4.805,3.628-4.805a12.714,12.714,0,0,0,3.379-3.89l1.1-.181c5-.819,13.3-2.3,14.229-2.713,1.274-.564,1.018,1.95.511,4.083s-.891,12.373-.311,13.7a8.1,8.1,0,0,1,.311,3.457l-.763,11.492.508,2.451s-1.719,1.38-1.018,2.2.065,4.335.065,4.335c.059-.022.131-.044.209-.065-.059.137-.118.28-.171.427-.987,2.8-.42,7.424-.42,7.424v3.644s17.63.311,21.51.311,9.231-1.884,9.548-3.391S823.894,476.912,822.113,476.847ZM771.974,411.47l-1.152.1a9.077,9.077,0,0,1,1.149-.1Zm7.041-48.205c.162-.729.358-1.507.576-2.311Zm2.18,49.965a4.671,4.671,0,0,1-3.426,0h0a36.431,36.431,0,0,1,.573-6.228c.511-1.834,1.208-5.151,1.208-5.151a67.479,67.479,0,0,1,1.146-6.658c.573-2.074,2.8-13.628,3.946-14.382a1.207,1.207,0,0,1,1.781.567,4.284,4.284,0,0,0,.458-.034c.056.118.115.249.184.383a94.693,94.693,0,0,0,5.341,8.38,9.166,9.166,0,0,1,2.927,2.89c1.084,1.819,1.4,6.091,1.4,6.091s2.42,9.483,3.563,10.8c.573.66.311,1.053-.078,1.28a5.637,5.637,0,0,0-2.009,1.869c-.162.258-.336.542-.511.847-.439-.1-.828-.209-1.155-.311-3.142-1.056-13.637-1.1-15.353-.327Z" transform="translate(-522.153 -239.928)"/><path class="o" d="M922.8,793.333v3.612s17.25.311,21.049.311,9.031-1.869,9.343-3.363-4.36-2.741-6.1-2.8-1.806-.747-4.048-1.931a23.338,23.338,0,0,1-4.618-4.167c-1.106-1.205-1.922-2.18-1.922-2.18s-9.277-.187-11.956,1.308a3.193,3.193,0,0,0-1.333,1.868C922.245,788.762,922.8,793.333,922.8,793.333Z" transform="translate(-648.078 -554.117)"/><path class="e" d="M924.47,786c1.946-.676,13.335-.934,15.21-.978-1.106-1.205-1.921-2.18-1.921-2.18s-9.277-.187-11.956,1.308A3.153,3.153,0,0,0,924.47,786Z" transform="translate(-649.337 -554.137)"/><path class="p" d="M763.77,602.533l1.006.623.377.227,1.464.884c7.829,4.715,29.177,17.5,30.348,17.4.312-.025,1.227-.165,2.491-.371l1.081-.177c4.889-.813,13.014-2.28,13.924-2.691,1.246-.561,1,1.931.5,4.049s-.872,12.27-.311,13.578a8.284,8.284,0,0,1,.311,3.426l-.747,11.4.5,2.429s-1.682,1.37-1,2.18.062,4.3.062,4.3c1.993-.747,15.506-1,15.506-1s-.561-4.983-.062-6.166.125-8.222.125-8.222.311-5.356-.249-6.6.187-9.215.187-9.215.5-4.734.623-14.385-5.481-9.966-5.481-9.966-.747-.059-1.869-.168a83.471,83.471,0,0,1-8.39-1.158,13.526,13.526,0,0,1-1.5-.4c-3.052-1.04-13.329-1.081-15.007-.333a4.521,4.521,0,0,1-3.357,0h0l-1.308-2.118L780.5,601.125l-1.324.112-12.3,1.049-.847.072Z" transform="translate(-538.682 -428.282)"/><path class="e" d="M920.438,618.379c3.628,1.769,7.091-4.5,8.72-8.041a83.525,83.525,0,0,1-8.39-1.159C919.127,611.908,916.959,616.682,920.438,618.379Z" transform="translate(-645.28 -434.562)"/><path class="q" d="M889.549,489.154a3.906,3.906,0,0,0,.439,1.221,94.409,94.409,0,0,0,5.229,8.309,9.031,9.031,0,0,1,2.865,2.865c1.059,1.806,1.37,6.042,1.37,6.042s2.367,9.4,3.488,10.71c.561.654.311,1.043-.078,1.271a5.561,5.561,0,0,0-1.965,1.837c-1.635,2.628-4.242,7.835-.573,9.623,4.983,2.429,9.654-10.3,9.654-10.3s-.934-9.031-1.183-10.588-1.741-7.972-1.741-7.972-1.059-2.741-1.682-4.671a15.8,15.8,0,0,0-2.491-4.173s-3.363-6.724-4.3-7.72c-.433-.464-1.04-1.046-1.557-1.538l-1.109-1.015S889.487,487.662,889.549,489.154Z" transform="translate(-625.291 -347.712)"/><path class="o" d="M754,783.8l11.336,5.045s14.7.311,17.25-.374,1.993-3.55-1.37-4.111-4.173-2.055-5.294-2.741a53.2,53.2,0,0,1-5.107-5.341l-1.37-1.557s-2.18-5.792-8.218-4.485a6.186,6.186,0,0,0-2.94,1.557c-3.254,3.011-3.538,8.975-3.538,8.975Z" transform="translate(-531.955 -545.328)"/><path class="e" d="M768.21,602.788l1.464.884c7.829,4.715,29.177,17.5,30.348,17.4.312-.025,1.227-.165,2.491-.371l1.081-.177.041-.072a14.123,14.123,0,0,0,1.426-3.491c1.311-4.98-5.151-8.792-5.151-8.792l-1.37-1.065c-1.557-2.622-12.768-5.1-12.768-5.1l-1.445-.972-.769-.517-.205-.137L781.6,599.2l-8.779.623-2.61,1.675-.274.177-.969.623Z" transform="translate(-541.74 -427.69)"/><path class="e" d="M767.73,771.77c2.382,8.243,12.342,5.553,12.342,5.553l.187-1.047-1.37-1.557s-2.18-5.792-8.218-4.484A6.184,6.184,0,0,0,767.73,771.77Z" transform="translate(-541.409 -545.328)"/><path class="p" d="M753.476,617.262c3.675,0,13.139,4.422,13.139,4.422a6.279,6.279,0,0,0,4.547,1s-4.609,4.671-4.484,6.6-2.613,5.107-2.613,5.107l-8.471,16.752c.623,11.893,12.828,8.6,12.828,8.6l.5-2.8c.748-.374,1.869-4.111,1.869-4.111s0-1.495.747-1.931,2.3-4.92,2.3-4.92,3.363-5.668,3.177-6.415,2.429-4.544,2.429-4.544,4.422-4.36,4.235-5.138,3.55-4.765,3.55-4.765a12.6,12.6,0,0,0,3.3-3.859,14.11,14.11,0,0,0,1.442-3.5c1.056-4.011-2.94-7.256-4.537-8.365-.386-.271-.623-.414-.623-.414l-1.37-1.065c-.707-1.193-3.426-2.357-6.154-3.27-1.974-.657-3.967-1.187-5.241-1.5-.866-.2-1.383-.33-1.383-.33l-1.445-.972-.508-.339-.464-.311L768.484,600l-3.905.277-4.874.346-2.607,1.688-1.246.8-4.868,3.114s-.128,1.2-.168,2.8v.38C750.758,612.681,751.107,617.262,753.476,617.262Z" transform="translate(-529.759 -428.241)"/><path class="q" d="M819.56,418.086l1.308,4.671s2.3,8.035,2.554,8.6a88.6,88.6,0,0,0,6.54,6.353c.249.125,3.538,1.99,3.538,1.99s.262-10.277,0-13.264a8.5,8.5,0,0,1,.162-1.959,73.15,73.15,0,0,1,2.236-8.424c.7-2.214,1.274-3.877,1.274-3.877s-14.571-.623-14.073.81a5.107,5.107,0,0,1-.056,2.354c-.311,1.492-.934,2.993-1.314,2.874a5.294,5.294,0,0,0-1.155-.128C820.049,418.067,819.56,418.086,819.56,418.086Z" transform="translate(-577.098 -298.814)"/><path class="e" d="M830.78,415.336a10.778,10.778,0,0,0,12.856.713c.7-2.214,1.274-3.877,1.274-3.877s-14.572-.623-14.073.81A5.108,5.108,0,0,1,830.78,415.336Z" transform="translate(-584.824 -298.814)"/><path class="q" d="M839.931,371.062a10.734,10.734,0,0,1-.539,3.363,8.8,8.8,0,0,1-.311.825,10.775,10.775,0,0,1-20.018-.414,10.621,10.621,0,0,1-.673-3.572v-.2a10.775,10.775,0,1,1,21.549,0Z" transform="translate(-576.293 -263.182)"/><path class="e" d="M819.56,431.442l1.308,4.671s2.3,8.035,2.554,8.6a88.6,88.6,0,0,0,6.54,6.353c.249.125,3.538,1.99,3.538,1.99s.262-10.277,0-13.263a8.5,8.5,0,0,1,.162-1.959l-.847,3.454.062,6.914.5.374-1.121,1.682v-1.246s-3.986-3.862-4.609-5.481a27.216,27.216,0,0,0-2.865-4.553s-2.554-4.291-2.616-5.039a7.948,7.948,0,0,0-1.591-2.491C820.049,431.423,819.56,431.442,819.56,431.442Z" transform="translate(-577.098 -312.17)"/><path class="e" d="M889.549,489.161a3.906,3.906,0,0,0,.439,1.221,7.686,7.686,0,0,0,7.023-6.306L895.9,483.06S889.487,487.669,889.549,489.161Z" transform="translate(-625.291 -347.719)"/><path class="e" d="M750.8,609.427c1.246-.891,2.454-2.1,3.167-2.438a13.754,13.754,0,0,0,2.678-2.118s.411-.28,1.04-.648a12.58,12.58,0,0,1,4.5-1.781c1.3-.109,5.606-.386,9.031-.6l4.435-.274s4.048-1.433,5.792-.5a18.3,18.3,0,0,0,3.924,1.432v-.37h0l-1.308-2.118-13.815,1.177L768.476,600l-8.779.623-2.607,1.688-2.248.193,1.006.623-4.868,3.114S750.828,607.633,750.8,609.427Z" transform="translate(-529.752 -428.241)"/><path class="o" d="M743.2,493.087a5.641,5.641,0,0,0,1.825-.934h0c1.246-.888,2.445-2.1,3.158-2.432a13.757,13.757,0,0,0,2.678-2.118s3.3-2.242,5.543-2.429c.623-.05,1.887-.14,3.426-.24s3.426-.221,5.082-.311l2.641-.165,2.3-.143s4.048-1.433,5.792-.5a18.3,18.3,0,0,0,3.924,1.432,36.564,36.564,0,0,1,.56-6.166c.5-1.806,1.183-5.1,1.183-5.1s.561-4.547,1.121-6.6,2.737-13.516,3.859-14.263,1.744.561,1.744.561,7.474-.125,7.6-8.343c0,0-3.488-3.488-3.737-4.36s-3.55-4.111-3.55-4.111-1.869-3.488-3.986-3.55a16.939,16.939,0,0,0-3,.093l-1.794,7.318.062,6.914.5.374-1.121,1.682v-1.246s-3.986-3.862-4.609-5.481a27.217,27.217,0,0,0-2.865-4.553s-2.554-4.291-2.616-5.039-1.806-2.75-1.806-2.75a4.585,4.585,0,0,0-1.059,0,1.1,1.1,0,0,1-.464-.065,6.2,6.2,0,0,0-3.114-.174c-2.152.445-5.428,1.264-6.325,2.242-1.37,1.495-3.363,2.927-5.606,9.156l12.08,4.36-1.053,1.968-9.614,18.274s-.311.52-.751,1.2h0c-.561.881-1.311,2.03-1.8,2.663-.872,1.121-.623,4.671-.623,4.671a4.988,4.988,0,0,1-.81,2.3c-.623.623-.5,2.927-.5,2.927l-1.619,6.042s-1.495,1.37-1.495,1.993a8.225,8.225,0,0,1-1.183,2.367S741.388,493.535,743.2,493.087Z" transform="translate(-523.961 -311.362)"/><path class="e" d="M938.446,646.44s-3.921,1.3-4.983,3.173S938.446,646.44,938.446,646.44Z" transform="translate(-655.443 -460.218)"/><path class="e" d="M932.162,633.24c-.125.187-5.375,5.453-5.045,6.724S932.162,633.24,932.162,633.24Z" transform="translate(-651.149 -451.129)"/><path class="e" d="M836.653,645.24s-5.842,2.759-6.353,3.974S836.653,645.24,836.653,645.24Z" transform="translate(-584.475 -459.392)"/><path class="e" d="M836.168,656.63s-5.294,2.242-6,2.8S836.168,656.63,836.168,656.63Z" transform="translate(-584.364 -467.235)"/><path class="e" d="M833.253,671.226s-2.339,1.744-3.631.374S833.253,671.226,833.253,671.226Z" transform="translate(-583.878 -477.044)"/><path class="e" d="M847.443,526.05c-.125.187-7.91,14.2-9.966,15.26S847.443,526.05,847.443,526.05Z" transform="translate(-589.273 -377.321)"/><path class="e" d="M848.969,543.05c0,.311-7.6,16.565-8.844,16.751S848.969,543.05,848.969,543.05Z" transform="translate(-591.185 -389.026)"/><path class="e" d="M764.25,576.64s-3.669,7.839-5.107,8.284S764.25,576.64,764.25,576.64Z" transform="translate(-535.354 -412.156)"/><path class="e" d="M769.208,565.45s-1.264,2.737-2.034,2.737S769.208,565.45,769.208,565.45Z" transform="translate(-540.935 -404.45)"/><path class="e" d="M839.931,371.055a10.732,10.732,0,0,1-.539,3.363,8.768,8.768,0,0,1-.311.825,3.167,3.167,0,0,1-1.5-.663,3.737,3.737,0,0,1-1.13-1.208,15.154,15.154,0,0,1-.551-1.573,3.659,3.659,0,0,0-2.955-2.239,1.145,1.145,0,0,1-.912,1.557,2.229,2.229,0,0,1-1.869-.832c-.486-.52-.831-1.152-1.311-1.672a2.235,2.235,0,0,0-1.869-.832,4.245,4.245,0,0,0-1.619.919,1.56,1.56,0,0,1-1.744.212c-.28-.209-.417-.564-.685-.791-.688-.576-1.76.019-2.267.763a5.935,5.935,0,0,1-2.273,2.37v-.2a10.774,10.774,0,1,1,21.549,0Z" transform="translate(-576.293 -263.175)"/><path class="o" d="M815.224,348.271c.508-.747,1.579-1.342,2.267-.763.268.224.4.579.685.791a1.559,1.559,0,0,0,1.744-.212,4.245,4.245,0,0,1,1.619-.919,2.229,2.229,0,0,1,1.869.832c.486.52.828,1.152,1.311,1.672a2.228,2.228,0,0,0,1.869.828,1.142,1.142,0,0,0,.912-1.557,3.653,3.653,0,0,1,2.952,2.239,15.949,15.949,0,0,0,.551,1.573,3.737,3.737,0,0,0,1.134,1.205,2.672,2.672,0,0,0,1.962.651c.7-.121,1.289-.934.965-1.557.221.339.7-.134.772-.533a5.688,5.688,0,0,0-.143-2.628c-.343-1.159-1.065-2.3-.788-3.482a9.717,9.717,0,0,1,1.5-2.423,4.392,4.392,0,0,0-.411-4.771,5.422,5.422,0,0,0-4.484-1.965,7.6,7.6,0,0,1-1.408.025,4.669,4.669,0,0,1-2.068-1.106L822.81,332.1a6.4,6.4,0,0,0-1.971-1.19,2.217,2.217,0,0,0-2.18.4c-.978.978-.358,2.66-.75,3.983a3.832,3.832,0,0,1-2.563,2.311c-1.13.386-2.342.473-3.507.754a1.918,1.918,0,0,0-.934.436,1.868,1.868,0,0,0-.408,1.327,7.2,7.2,0,0,0,.81,3.367c.6,1.162,1.557,2.354,1.224,3.622a4.629,4.629,0,0,1-1.152,1.707c-.984,1.134-1.317,2.8.539,2.224C813.713,350.479,814.214,349.753,815.224,348.271Z" transform="translate(-570.853 -242.873)"/><g class="k" transform="translate(239.646 96.762)"><path d="M836.054,384.764c-.075.4-.551.872-.775.533a1.209,1.209,0,0,1-.965,1.557,2.663,2.663,0,0,1-1.962-.651,3.736,3.736,0,0,1-1.13-1.208,14.912,14.912,0,0,1-.551-1.573,3.665,3.665,0,0,0-2.955-2.239,1.142,1.142,0,0,1-.912,1.557,2.238,2.238,0,0,1-1.869-.832c-.486-.52-.831-1.149-1.311-1.672a2.227,2.227,0,0,0-1.869-.831,4.286,4.286,0,0,0-1.619.919,1.561,1.561,0,0,1-1.744.215c-.28-.212-.414-.567-.682-.791-.691-.579-1.763.016-2.27.76-1.006,1.482-1.507,2.214-3.295,2.778-.585.184-.953.143-1.152-.034-.389.9-.212,1.691,1.152,1.261,1.788-.564,2.289-1.292,3.295-2.775.508-.747,1.579-1.342,2.27-.763.268.224.4.579.682.791a1.559,1.559,0,0,0,1.744-.212,4.244,4.244,0,0,1,1.619-.919,2.229,2.229,0,0,1,1.869.832c.486.52.828,1.152,1.311,1.672a2.228,2.228,0,0,0,1.869.828,1.14,1.14,0,0,0,.912-1.557,3.653,3.653,0,0,1,2.955,2.239,15.154,15.154,0,0,0,.551,1.573,3.737,3.737,0,0,0,1.13,1.205,2.676,2.676,0,0,0,1.962.651c.7-.121,1.289-.934.965-1.557.224.339.7-.134.775-.533a5.714,5.714,0,0,0,.056-1.629A3.388,3.388,0,0,1,836.054,384.764Z" transform="translate(-810.72 -373.095)"/><path d="M812.538,365.48a.064.064,0,0,1,.016-.05c.339-1.264-.623-2.457-1.224-3.619a7.213,7.213,0,0,1-.772-2.632,3.75,3.75,0,0,0-.037.492,7.234,7.234,0,0,0,.81,3.366A11.714,11.714,0,0,1,812.538,365.48Z" transform="translate(-810.52 -359.18)"/><path d="M890.221,366.151a9.772,9.772,0,0,0-1.5,2.423,2.7,2.7,0,0,0,0,1.193,10.2,10.2,0,0,1,1.485-2.389,4.049,4.049,0,0,0,.48-2.628,3.769,3.769,0,0,1-.467,1.4Z" transform="translate(-864.323 -363.015)"/></g><path class="e" d="M770.76,507.036h0a9.883,9.883,0,0,1,.19,1.043s4.92,11.523,5.543,12.2c.19.212.912,1.246,1.822,2.582l1.043,1.538c1.869,2.8,3.983,5.97,3.983,5.97l4.622,4.036s10.025.8,13.211-2.451c-.386-.271-.623-.414-.623-.414l-1.37-1.065c-.707-1.193-3.426-2.357-6.154-3.27-2.523.019-4.587.224-4.587.224l-.654-1.728-.685-1.8-3.5-9.162s-2.248-11.582-3-12.145-.557-2.3-.557-2.3,1.367-4.92.869-5.606.81-5.727.81-5.727a5.1,5.1,0,0,0-.6-1.4l-9.614,18.274S771.19,506.358,770.76,507.036Z" transform="translate(-543.496 -350.817)"/><path class="q" d="M777.847,479.172s-1.308,5.042-.81,5.727-.872,5.606-.872,5.606-.184,1.744.561,2.3,3,12.146,3,12.146l4.824,12.706s15.1-1.495,13.544,3.239-14.014,3.737-14.014,3.737l-4.609-4.048s-6.228-9.405-6.851-10.09-5.543-12.2-5.543-12.2a7.448,7.448,0,0,0-1.308-3.488c-1.059-1.183-.249-3.186-.249-3.186s-1.308-15.06.062-16.867S776.414,473.753,777.847,479.172Z" transform="translate(-539.496 -341.402)"/><path class="e" d="M768.487,458.563l-3.924,2.367s-1.121,3.8-1.993,4.3c0,0,7.848-4.36,13.762,5.665a2.264,2.264,0,0,1,.623-1.928c.81-.623.623-3.3.623-3.3a10.782,10.782,0,0,0,.561-1.308C778.7,462.985,775.784,455.137,768.487,458.563Z" transform="translate(-537.856 -330.26)"/><path class="o" d="M768.087,457.763l-3.924,2.367s-1.121,3.8-1.993,4.3c0,0,7.848-4.36,13.762,5.665a2.264,2.264,0,0,1,.623-1.928c.81-.623.623-3.3.623-3.3a10.778,10.778,0,0,0,.561-1.308C778.311,462.185,775.371,454.337,768.087,457.763Z" transform="translate(-537.581 -329.709)"/><ellipse class="m" cx="11.697" cy="12.416" rx="11.697" ry="12.416" transform="translate(183.839 212.285)"/><ellipse class="e" cx="11.697" cy="12.416" rx="11.697" ry="12.416" transform="translate(183.839 212.285)"/><ellipse class="m" cx="11.697" cy="12.139" rx="11.697" ry="12.139" transform="translate(185.857 212.839)"/><ellipse class="c" cx="14.447" cy="2.442" rx="14.447" ry="2.442" transform="translate(13.625 226.641)"/><path class="c" d="M120.824,756.517a4.157,4.157,0,0,0,1.38-2.08,1.838,1.838,0,0,0-.962-2.115c-.884-.339-1.831.274-2.547.894a3.4,3.4,0,0,1-2.473,1.193,3.765,3.765,0,0,0,1.165-3.525,1.464,1.464,0,0,0-.311-.716c-.489-.523-1.38-.311-1.968.115-1.869,1.314-2.389,3.852-2.4,6.135a11.427,11.427,0,0,1-.034-2.529,2.618,2.618,0,0,0-.934-2.236,2.881,2.881,0,0,0-1.448-.339,2.993,2.993,0,0,0-2.348.666,2.339,2.339,0,0,0,.09,2.887,9.019,9.019,0,0,0,2.432,1.946,5.422,5.422,0,0,1,1.738,1.657,1.6,1.6,0,0,1,.128.311H117.6a14.638,14.638,0,0,0,3.226-2.264Z" transform="translate(-86.779 -531.43)"/><path class="m" d="M465.33,335.087l11.809-5.917,4.36,4,1.037,2.856,1.09,4.8-.959,2.1-7.552,1.376s-4.024-.234-4.646.078a25.115,25.115,0,0,1-3.164.85l-1.974-4.861Z" transform="translate(-333.184 -241.754)"/></g></svg>