<svg xmlns="http://www.w3.org/2000/svg" xmlns:xlink="http://www.w3.org/1999/xlink" width="188.719" height="200" viewBox="0 0 188.719 200"><defs><style>.a,.i{fill:#6c63ff;}.a,.c,.g,.s,.u{opacity:0.1;}.b{fill:#f86d70;}.d,.h{opacity:0.15;}.e{fill:#3f3d56;}.f{fill:#decc62;}.g,.h{fill:#bf9f41;}.j{fill:url(#a);}.k{fill:#fec2be;}.l{fill:#4c4981;}.m{opacity:0.05;}.n{fill:#ca8496;}.o{fill:#00bbb4;}.p{fill:#fff;}.q{fill:#ff718d;}.r{fill:#9a5e7f;}.t{fill:#00b3ac;}.u{fill:#00807b;}</style><linearGradient id="a" x1="0.5" y1="1" x2="0.5" gradientUnits="objectBoundingBox"><stop offset="0" stop-color="gray" stop-opacity="0.251"/><stop offset="0.54" stop-color="gray" stop-opacity="0.122"/><stop offset="1" stop-color="gray" stop-opacity="0.102"/></linearGradient></defs><g transform="translate(-463.08)"><ellipse class="a" cx="93.795" cy="14.674" rx="93.795" ry="14.674" transform="translate(464.208 170.653)"/><path class="b" d="M846.251,472.98v17.551l-4.641,9.362h0l-.147.3-12.283-.811-4.721-.314-10.959-.722V477.348l10.959.308,4.9.138,12.4.351Z" transform="translate(-249.599 -336.896)"/><path class="c" d="M915.841,476.58v16.515l-1.136,2.287h0l-1.159,2.345h0l-2.345,4.73.262-17.551.052-3.542,2.23-2.466h0l.972-1.076Z" transform="translate(-319.189 -339.46)"/><path class="b" d="M844.485,453.667V459.8l-.627,1L842.73,462.6l-1,1.588-2.2,3.51-.052,0-29.338-1.51v-6.045l.075-.081,3.5-3.792,1.269-1.372,2.293-2.48Z" transform="translate(-247.205 -322.244)"/><path class="c" d="M839.53,480.571v6.048l-29.39-1.513v-6.045l.075-.081Z" transform="translate(-247.205 -341.17)"/><path class="d" d="M917.245,456.78v6.131l-4.954,7.895v-6.048Z" transform="translate(-319.965 -325.357)"/><path class="e" d="M851.589,462.63l0,4.117,0,1.988-.009,15.571h0l-1.16,2.345.173-16.328.026-2.5h0l.04-3.689L822.57,462.4l1.269-1.372Z" transform="translate(-256.059 -328.384)"/><path class="e" d="M858.475,467.29l-1.968,4.273-.017,2.178-.178,21.584-4.721-.314V471.278l2.518-3.988Z" transform="translate(-276.729 -332.843)"/><path class="e" d="M881.475,533.839a6.221,6.221,0,0,1-3.522.124,1.41,1.41,0,0,1-.616-.288,1.605,1.605,0,0,1-.383-.757,5.952,5.952,0,0,1-.337-1.81,2.014,2.014,0,0,1,.754-1.617,1.764,1.764,0,0,0,.288-.216,1.212,1.212,0,0,0,.221-.449c.345-1.027,1.01-2.109,2.08-2.276a3.574,3.574,0,0,1,2.647,1.185l1.669,1.421a2.633,2.633,0,0,1,4.911-.066,9.313,9.313,0,0,1,3.712-2.549,1.151,1.151,0,0,1,.975-.037,1.088,1.088,0,0,1,.388.521,8.012,8.012,0,0,1,.725,3.165.555.555,0,0,1,.645.221,1.465,1.465,0,0,1,.213.7,9.618,9.618,0,0,1,.066,1.151,1.726,1.726,0,0,1-.288,1.151,1.886,1.886,0,0,1-1.439.449.581.581,0,0,1-.15.863,1.681,1.681,0,0,1-.975.19,6.7,6.7,0,0,1-3.76-.768c-.426-.288-.783-.665-1.211-.949a5.887,5.887,0,0,0-3.576-.667C883.386,532.582,882.517,533.488,881.475,533.839Z" transform="translate(-306.209 -399.105)"/><path class="e" d="M862.106,551.223s-10.833,1.51-12.346,8.056l2.27-.334,1.594,2.854s1.68-6.382,6.635-7.895a53.267,53.267,0,0,1,6.718-1.761s3.453.837,6.548,10.832l1.764-2.437,3.107.673s-2.267-7.811-8.4-9.992Z" transform="translate(-287.078 -416.773)"/><path class="f" d="M765.189,496.84v23.708l-6.266,12.642v0l-.2.4-16.593-1.1-6.379-.423-14.8-.978V502.738l14.8.417,6.62.187,16.748.472Z" transform="translate(-183.677 -353.891)"/><path class="c" d="M859.2,501.7v22.31l-1.531,3.087v0l-1.571,3.165h0l-3.165,6.387.354-23.708.072-4.782,3.01-3.329v0l1.312-1.45Z" transform="translate(-277.684 -357.353)"/><path class="f" d="M762.814,470.74v8.283l-.852,1.355-1.519,2.42-1.346,2.146-2.975,4.742-.072-.006-39.63-2.037v-8.168l.1-.106,4.733-5.121,1.712-1.856,3.1-3.352Z" transform="translate(-180.45 -334.09)"/><path class="g" d="M756.122,507.089v8.168l-39.7-2.043v-8.168l.1-.106Z" transform="translate(-180.45 -359.661)"/><path class="h" d="M861.1,474.95v8.283L854.41,493.9v-8.168Z" transform="translate(-278.738 -338.299)"/><path class="e" d="M772.409,482.851l-.006,5.564V491.1l-.011,21.035v0L770.82,515.3l.236-22.056.035-3.375v0l.055-4.983-37.935-2.336,1.712-1.856Z" transform="translate(-192.409 -342.388)"/><path class="e" d="M781.7,489.15l-2.658,5.772-.023,2.943-.242,29.154L772.4,526.6V494.539l3.4-5.389Z" transform="translate(-220.324 -348.414)"/><path class="e" d="M798.57,549.57a8.419,8.419,0,0,1-4.756.167,1.891,1.891,0,0,1-.832-.386,2.162,2.162,0,0,1-.518-1.021,8.053,8.053,0,0,1-.455-2.448,2.722,2.722,0,0,1,1.019-2.181,2.712,2.712,0,0,0,.385-.288,1.6,1.6,0,0,0,.288-.607c.463-1.387,1.364-2.851,2.811-3.073,1.332-.2,2.546.725,3.573,1.6l2.253,1.919a3.559,3.559,0,0,1,6.635-.089,12.6,12.6,0,0,1,5.015-3.453,1.546,1.546,0,0,1,1.321-.052,1.5,1.5,0,0,1,.524.7,10.858,10.858,0,0,1,.978,4.276.748.748,0,0,1,.863.288,1.983,1.983,0,0,1,.288.944,13.3,13.3,0,0,1,.092,1.551,2.324,2.324,0,0,1-.409,1.554,2.586,2.586,0,0,1-1.962.61.787.787,0,0,1-.2,1.165,2.262,2.262,0,0,1-1.318.256c-1.755-.017-3.62-.066-5.078-1.042-.575-.383-1.059-.895-1.637-1.277a7.948,7.948,0,0,0-4.834-.9C801.151,547.869,799.977,549.1,798.57,549.57Z" transform="translate(-245.944 -408.445)"/><path class="e" d="M772.378,573.08s-14.633,2.043-16.687,10.89l3.064-.455,2.155,3.858s2.27-8.631,8.962-10.663a76.144,76.144,0,0,1,9.075-2.382s4.649,1.134,8.847,14.633l2.382-3.292,4.209.909s-3.064-10.551-11.345-13.5Z" transform="translate(-220.074 -432.344)"/><path class="e" d="M889.469,537.77v14.674l-3.878,7.826h0l-.124.247-10.269-.679-3.948-.262-9.161-.6V541.421l9.161.256,4.1.115,10.366.293Z" transform="translate(-284.208 -383.045)"/><path class="c" d="M947.648,540.77v13.81l-.947,1.91h0l-.972,1.959v0l-1.959,3.953.219-14.674.046-2.961,1.861-2.063h0l.814-.9Z" transform="translate(-342.388 -385.182)"/><path class="e" d="M887.994,521.613v5.127l-.527.837-.941,1.5-.831,1.329-1.841,2.932h-.046l-24.528-1.263v-5.055l.06-.066,2.929-3.171,1.062-1.145,1.916-2.077Z" transform="translate(-282.207 -370.787)"/><path class="c" d="M883.854,544.109v5.055L859.28,547.9v-5.055l.06-.066Z" transform="translate(-282.207 -386.614)"/><path class="d" d="M948.83,524.22v5.127l-4.14,6.6v-5.055Z" transform="translate(-343.043 -373.394)"/><path class="i" d="M893.93,529.115v3.444l0,1.66-.006,13.019h0l-.973,1.959.147-13.649.02-2.092h0l.035-3.084-23.48-1.447,1.062-1.145Z" transform="translate(-289.608 -375.929)"/><path class="i" d="M899.687,533.01l-1.646,3.573-.014,1.818-.15,18.046-3.947-.262V536.345l2.106-3.335Z" transform="translate(-306.888 -379.655)"/><path class="i" d="M925.545,602.427a5.231,5.231,0,0,1-2.943.1,1.2,1.2,0,0,1-.515-.242,1.355,1.355,0,0,1-.319-.63,4.991,4.991,0,0,1-.288-1.516,1.683,1.683,0,0,1,.63-1.349,1.446,1.446,0,0,0,.239-.181.99.99,0,0,0,.184-.374c.288-.863.846-1.764,1.741-1.9a2.977,2.977,0,0,1,2.213.99l1.4,1.188a2.2,2.2,0,0,1,4.106-.052,7.832,7.832,0,0,1,3.1-2.129.955.955,0,0,1,.814-.032.914.914,0,0,1,.325.434,6.673,6.673,0,0,1,.6,2.647.46.46,0,0,1,.538.184,1.243,1.243,0,0,1,.181.575,8.262,8.262,0,0,1,.055.961,1.438,1.438,0,0,1-.253.961,1.583,1.583,0,0,1-1.214.377.489.489,0,0,1-.124.722,1.409,1.409,0,0,1-.817.158,5.584,5.584,0,0,1-3.145-.644c-.357-.236-.656-.552-1.013-.791a4.927,4.927,0,0,0-2.989-.558C927.141,601.374,926.416,602.134,925.545,602.427Z" transform="translate(-338.163 -448.83)"/><path class="i" d="M909.37,616.94s-9.057,1.263-10.32,6.741l1.9-.288,1.332,2.388s1.4-5.337,5.547-6.6a45.343,45.343,0,0,1,5.616-1.473s2.877.7,5.467,9.054l1.476-2.034,2.589.575s-1.9-6.528-7.02-8.344Z" transform="translate(-322.187 -463.585)"/><path class="j" d="M664.676,159.1c-.322-1.928-6.3-6.1-6.3-6.1a16.62,16.62,0,0,1-4.028-3.1c-.895-1.059-1.174-1.047-1.257-.9a.431.431,0,0,0-.2-.066c-.055-.04-.109-.078-.161-.121h0a.386.386,0,0,0-.222-.394,2.213,2.213,0,0,1-.2-.144,6.59,6.59,0,0,1-.67-2.825c-.066-1.208-1.439-.9-1.873-.771-.317-.6-.627-1.231-.918-1.859a3.306,3.306,0,0,0,.3-.647c.834-1.841.65-3.95,1.013-5.9a17.354,17.354,0,0,0,.7-4.25v-.1a.047.047,0,0,1,0,.02,3.714,3.714,0,0,0-.23-1c-.239-.619-.659-1.151-.863-1.792-.3-.926-.109-1.951-.36-2.894a4.3,4.3,0,0,0-2.428-2.641,11.875,11.875,0,0,0-3.594-.863c-3.073-.391-6.33-.624-9.135.688a1.6,1.6,0,0,1-.863.233,2.553,2.553,0,0,1-.777-.365,2.32,2.32,0,0,0-2.371.371,7.09,7.09,0,0,0-1.577,1.945,6.077,6.077,0,0,1-1.626,1.9c-.82.555-1.9.742-2.541,1.493a2.414,2.414,0,0,0-.529,1.243.049.049,0,0,0,0-.02v.406a3.119,3.119,0,0,0,0,.365,7.947,7.947,0,0,0,.544,2.043,2.847,2.847,0,0,0,.742,1.283c.984.817,2.538.046,3.74.5a2.836,2.836,0,0,1,.288.135l-.043.138a9.782,9.782,0,0,0,9.472,12.5,5.3,5.3,0,0,0,.6-.023c.029.106.06.213.086.319a10.809,10.809,0,0,1,.288,3.66l-.06-.532a2.729,2.729,0,0,0-.409-.161,3.625,3.625,0,0,0-1.223-.187c-1.338-.02-3.355.529-5.5,3.182,0,0-2.745,1.554-3.553,1.928a.4.4,0,0,0-.15.173h0s-3.631,5.648-4.008,7.777l-.052.288-6.157-.288a11.368,11.368,0,0,0-1.036-4.434,1.585,1.585,0,0,0-.558-.742,1.645,1.645,0,0,0-1.4.055,13.4,13.4,0,0,0-5.331,3.634,3.792,3.792,0,0,0-7.052.095l-2.4-2.014c-1.09-.924-2.379-1.908-3.8-1.692-1.536.236-2.495,1.781-2.989,3.245a1.677,1.677,0,0,1-.316.642,1.113,1.113,0,0,1-.089.075l-1.887-.086-3.291,3.539-1.821,1.959-5.029,5.409-.106.112v5.4a9.832,9.832,0,0,0-.363,1.2l.363-.055v2.089l1.387.072v24.908l15.735,1.033,6.781.437,11.983.785a4.174,4.174,0,0,0,1.476,3.343,2.762,2.762,0,0,1,.662.6c-.052.1-.1.2-.152.308a6.34,6.34,0,0,0-.832,2.788,3.821,3.821,0,0,1-.575,2.489s-3.625,11.437-3.545,14.722-1.292,10.51-1.292,10.51-1.5,4.655-.607,5.979,1.9,7.1,1.9,7.1a5.926,5.926,0,0,1,.644,2.448,12.216,12.216,0,0,0,.647,3.165l2.261,8.306a7.5,7.5,0,0,0,.607,3.772c.849,1.565.765,1.082.363,3.812s.483,5.257,1.939,6.059a.9.9,0,0,1,.417,1.249h-.014c-.371-.147-.679.633-.863,1.263-.112.115-.187.181-.187.181l.127.032c-.081.3-.127.529-.127.529s-3.8,3.211-4.028,4.373-2.909,1.767-2.909,1.767a46.308,46.308,0,0,0-5.09,1.686,1.936,1.936,0,0,0-1.113,1.557,4.371,4.371,0,0,0,.144,1.571c.406,1.646,6.059,1.807,8.764,1.367s8.321-2.049,8.321-2.049,5.9-.575,7.633-1.283.363-2.566.363-2.566v-.175c.043-.67.164-3.1-.253-3.758a5.524,5.524,0,0,1-.262-2.512c1.18-2.158-1.355-8.631-1.355-8.631s.486-6.33.161-7.262-1.695-8.787-1.695-8.787-.849-3.573-.527-4.175-.2-2.328-.2-2.328-1.372-1.925-1.252-2.526a3.721,3.721,0,0,0-.4-1.686s4.12-6.261,3.755-7.423a6.815,6.815,0,0,1,.161-3.05l1.151-1.948c.765-1.3,1.692-2.863,2.014-3.349a42.08,42.08,0,0,0,1.885-4.77c.224-.645.377-1.088.377-1.088s.647,11.8,1.211,13,1.416,10.712,1.416,10.712a6.675,6.675,0,0,1,.4,2.65c-.08,1.485,1.292,7.944,1.292,7.944s.607,4.575.2,5.777-.081,10.07-.081,10.07a11.339,11.339,0,0,0-2.785,3.047c-.564,1.321.081,4.937.081,4.937l.259.124a7.519,7.519,0,0,0-.46,1.559c-.081.762-1.295,4.215-1.171,4.7s-.527,1.965-.607,2.728-1.09,1.887-1.171,2.3a9.736,9.736,0,0,1-.446,1.059,10.446,10.446,0,0,0-.524,1.631c-.4,1.683,4.4,1.965,4.4,1.965,7.107,1.323,8.4-4.091,8.4-4.091a40.2,40.2,0,0,1,1.211-5.179.6.6,0,0,0,.055-.46h0a6.277,6.277,0,0,0-1.024-2.27,2.7,2.7,0,0,1-.2-1.571,3.249,3.249,0,0,0,.607-.112c2.877-.843,1.7-5.7,1.7-5.7s1.936-3.208,1.936-4.454a50,50,0,0,1,.688-5.055c2.463-4.494,1.493-15.407,1.9-16.29s-.849-4.172-1.859-5.657-.6-5.5,0-6.661-.6-5.179-.6-5.179,1.171-7.786,1.131-8.988a26.786,26.786,0,0,1,1.007-4.776s1.05-1.844.808-2.405.809-2.014.527-2.65.242-2.607.765-3.772a22.553,22.553,0,0,0,.863-3.7l.086-.48c1.177.757,2.247,1.321,2.647,1.168.719-.288-.426-4.028-1.214-6.364.135-.1.19-.178.135-.216-.483-.319.055-1.767.055-1.767,2.854-1.726,1.885-3,.97-3.74s-.322-2.877-.593-3.74.322-4.762.808-7.6a5.519,5.519,0,0,0-.017-1.862c.521-.8,1.056-1.64,1.525-2.42,1.614-2.673,5.061-15.407,5.061-15.407l-.023-.066c.337-.676.575-1.226.722-1.591C666.937,169.375,665,161.028,664.676,159.1Zm-25.1-7.331.075-.037v.063ZM623.912,288.354a1.275,1.275,0,0,1-.512-.1Z" transform="translate(-95.716 -111.363)"/><path class="k" d="M614.888,362.191c2.365.9,7.872,1,10.318,1h1.2L627.976,360l-1.568-2.661s-1.439-.394-3.349-.739c-2.82-.509-6.678-.906-8.516.236C611.458,358.736,611.8,361.02,614.888,362.191Z" transform="translate(-118.007 -277.787)"/><path class="c" d="M651.606,364.432h1.2l1.568-3.191-1.568-2.661s-1.439-.394-3.349-.739C651.011,358.974,654.74,361.445,651.606,364.432Z" transform="translate(-144.408 -279.032)"/><path class="l" d="M676.883,242.547l-.693-.8s-3.565,5.639-3.936,7.768-.863,4.578-.863,4.578-.889,2.762-1.464,3.988a13.9,13.9,0,0,0-1.168,2.926,2.561,2.561,0,0,1-.906,2.446c-1.119.742-1.384,2.768-1.384,2.768s-4.028,3.936-6.172,4.042-8.246,1.171-8.033,2.236-2.555,1.7-3.671,1.968,7.193,3.453,2.342,7.555c0,0,3.084.639,3.4,1.384s3.565-.426,3.565-.426a3.373,3.373,0,0,1,3.087-1.755c2.394-.106,3.617-1.171,3.617-1.332a13.6,13.6,0,0,1,3.726-1.862c1.332-.374,3.084-.532,3.139-.9s7.978-34.583,7.978-34.583Z" transform="translate(-143.715 -196.343)"/><path class="m" d="M676.883,242.547l-.693-.8s-3.565,5.639-3.936,7.768-.863,4.578-.863,4.578-.889,2.762-1.464,3.988a13.9,13.9,0,0,0-1.168,2.926,2.561,2.561,0,0,1-.906,2.446c-1.119.742-1.384,2.768-1.384,2.768s-4.028,3.936-6.172,4.042-8.246,1.171-8.033,2.236-2.555,1.7-3.671,1.968,7.193,3.453,2.342,7.555c0,0,3.084.639,3.4,1.384s3.565-.426,3.565-.426a3.373,3.373,0,0,1,3.087-1.755c2.394-.106,3.617-1.171,3.617-1.332a13.6,13.6,0,0,1,3.726-1.862c1.332-.374,3.084-.532,3.139-.9s7.978-34.583,7.978-34.583Z" transform="translate(-143.715 -196.343)"/><path class="n" d="M765.2,716.379c7.023,1.318,8.3-4.068,8.3-4.068s.863-4.788,1.2-5.147a.59.59,0,0,0,.055-.457h0a6.241,6.241,0,0,0-1.013-2.256c-.44-.521-.081-2.676-.081-2.676l-8.14-2.074a12.245,12.245,0,0,0-.8,2.394c-.078.757-1.277,4.192-1.151,4.67s-.518,1.956-.6,2.713-1.076,1.876-1.151,2.276a9.785,9.785,0,0,1-.44,1.05,10.271,10.271,0,0,0-.518,1.623C760.448,716.1,765.2,716.379,765.2,716.379Z" transform="translate(-223.742 -522.533)"/><path class="c" d="M765.17,733.723c7.023,1.318,8.3-4.068,8.3-4.068s.863-4.788,1.2-5.147a.59.59,0,0,0,.055-.457l-1.692,4.845s-1.4,2.915-6.583,2.474a12.129,12.129,0,0,1-5.11-1.223,10.279,10.279,0,0,0-.518,1.623C760.417,733.444,765.17,733.723,765.17,733.723Z" transform="translate(-223.711 -539.877)"/><path class="c" d="M790.356,727.865s-1.755.04-1.876-1.4Z" transform="translate(-243.43 -541.601)"/><path class="l" d="M688.194,448.723c.863,1.318,1.876,7.063,1.876,7.063a5.958,5.958,0,0,1,.639,2.434,12.553,12.553,0,0,0,.639,3.165l2.236,8.26a7.426,7.426,0,0,0,.6,3.74c.84,1.548.757,1.079.357,3.792s.481,5.228,1.916,6.025-.639,2.673-.639,2.673,9.178,2.474,11.094.958-1-9.017-1-9.017.478-6.307.161-7.224-1.677-8.747-1.677-8.747-.837-3.55-.518-4.149-.2-2.316-.2-2.316-1.355-1.913-1.237-2.512a3.688,3.688,0,0,0-.4-1.669s4.068-6.226,3.712-7.383a6.888,6.888,0,0,1,.158-3.032s.515-.883,1.134-1.936c.757-1.295,1.672-2.845,1.979-3.329a42.853,42.853,0,0,0,1.862-4.744l.374-1.082s.636,11.73,1.2,12.927,1.4,10.646,1.4,10.646a6.687,6.687,0,0,1,.4,2.635c-.081,1.476,1.277,7.9,1.277,7.9s.6,4.549.2,5.754-.081,10.015-.081,10.015a11.4,11.4,0,0,0-2.753,3.032c-.558,1.306.081,4.908.081,4.908s6.384,3.191,9.207,2.354,1.675-5.665,1.675-5.665,1.916-3.194,1.916-4.431a50.1,50.1,0,0,1,.679-5.026c2.434-4.471,1.476-15.324,1.873-16.2s-.823-4.152-1.827-5.616-.6-5.467,0-6.618-.593-5.179-.593-5.179,1.151-7.742,1.119-8.939a27.431,27.431,0,0,1,1-4.747s1.036-1.836.8-2.394.8-2,.518-2.635.239-2.589.76-3.74a24.064,24.064,0,0,0,.863-3.677c.245-1.378.426-2.589.426-2.589L724.8,407.1l-16.44-4.316-6.186-2-6.025,9.495s-.622.993-1.174,2.138a6.358,6.358,0,0,0-.82,2.771,3.83,3.83,0,0,1-.558,2.474s-3.605,11.379-3.525,14.656-1.266,10.456-1.266,10.456S687.317,447.406,688.194,448.723Z" transform="translate(-171.8 -309.624)"/><path class="f" d="M593.076,209.76v24.9l-6.583,13.281h0l-.21.42-17.427-1.151-6.7-.443-15.548-1.027V215.955l15.548.44,6.954.2,17.588.5Z" transform="translate(-59.497 -149.409)"/><path class="c" d="M691.813,214.87V238.3l-1.608,3.243v0l-1.651,3.323v0l-3.323,6.71.371-24.9.075-5.024,3.162-3.5h0l1.378-1.525Z" transform="translate(-158.234 -153.048)"/><path class="f" d="M590.578,182.357v8.7l-.892,1.424-1.6,2.543-1.416,2.253-3.125,4.977-.075,0-41.624-2.141v-8.58l.1-.112,4.969-5.38,1.8-1.945,3.251-3.522Z" transform="translate(-56.107 -128.617)"/><path class="g" d="M583.549,220.529v8.577l-41.7-2.143v-8.58l.1-.112Z" transform="translate(-56.107 -155.47)"/><path class="h" d="M693.809,186.78v8.7l-7.029,11.2V198.1Z" transform="translate(-159.338 -133.04)"/><path class="o" d="M600.652,195.077l-.006,5.844v2.82l-.012,22.091v0l-1.651,3.323.247-23.164.037-3.548h0l.058-5.234-39.846-2.457,1.8-1.945Z" transform="translate(-68.664 -137.335)"/><path class="o" d="M610.421,201.69l-2.794,6.062-.023,3.09-.256,30.622-6.7-.443V207.346l3.573-5.656Z" transform="translate(-97.989 -143.661)"/><path class="o" d="M626.134,260.89a8.856,8.856,0,0,1-4.992.175,2.034,2.034,0,0,1-.863-.406,2.279,2.279,0,0,1-.541-1.073,8.5,8.5,0,0,1-.478-2.569,2.908,2.908,0,0,1,1.067-2.3,2.339,2.339,0,0,0,.406-.3,1.629,1.629,0,0,0,.314-.636c.489-1.456,1.439-3,2.952-3.228,1.4-.213,2.676.765,3.755,1.683l2.368,2.014a3.74,3.74,0,0,1,6.969-.095,13.218,13.218,0,0,1,5.268-3.614,1.616,1.616,0,0,1,1.384-.055,1.585,1.585,0,0,1,.55.739,11.356,11.356,0,0,1,1.027,4.488.785.785,0,0,1,.912.316,2.063,2.063,0,0,1,.3.99,14.025,14.025,0,0,1,.095,1.631,2.464,2.464,0,0,1-.429,1.631,2.711,2.711,0,0,1-2.06.639.829.829,0,0,1-.213,1.226,2.393,2.393,0,0,1-1.387.268c-1.841-.017-3.8-.069-5.334-1.093-.6-.4-1.111-.941-1.726-1.344a8.363,8.363,0,0,0-5.075-.949C628.847,259.115,627.612,260.407,626.134,260.89Z" transform="translate(-122.897 -202.464)"/><path class="o" d="M598.636,285.62s-15.37,2.143-17.516,11.437l3.22-.475,2.261,4.051s2.385-9.057,9.414-11.2a77.516,77.516,0,0,1,9.529-2.5s4.891,1.194,9.293,15.37l2.5-3.453,4.408.955s-3.217-11.08-11.914-14.179Z" transform="translate(-95.731 -227.591)"/><path class="k" d="M771.97,196.875c.253-.1,17.611-7.271,15.22-8.7-1.418-.846-3.165-4.428-4.362-7.233-.834-1.962-1.4-3.539-1.4-3.539s-13.931-2.474-8.945,6.065a15.785,15.785,0,0,1,1.758,4.206A9.446,9.446,0,0,1,771.97,196.875Z" transform="translate(-231.267 -150.274)"/><path class="c" d="M772.482,183.47a15.789,15.789,0,0,1,1.758,4.206,9.736,9.736,0,0,0,8.226-5.783,9.19,9.19,0,0,0,.363-.949c-.834-1.962-1.4-3.539-1.4-3.539S767.5,174.931,772.482,183.47Z" transform="translate(-231.267 -150.274)"/><path class="k" d="M745.05,154.956a9.736,9.736,0,0,0,18.644,3.93,9.639,9.639,0,0,0,.829-3.93,9.736,9.736,0,1,0-19.473,0Z" transform="translate(-212.495 -127.586)"/><path class="c" d="M712.4,412.441a5.943,5.943,0,0,1,1.413,2.69s4.8,3.277,4.471,1.2,2.474-10.453,2.474-10.453l-.319,11.411s15.321-.716,16.44-1.836,7.662-3.271,7.662-3.271,2.014,1.608,3.844,2.828c.245-1.378.426-2.589.426-2.589l-6.586-5.305-16.44-4.316-6.186-2-6.025,9.495S712.952,411.3,712.4,412.441Z" transform="translate(-189.239 -309.631)"/><path class="p" d="M707.039,270.141a5.391,5.391,0,0,1,1.755,2.955s4.788,3.271,4.468,1.2,2.474-10.456,2.474-10.456l-.319,11.411s15.324-.716,16.44-1.836,7.662-3.271,7.662-3.271,5.665,4.549,6.7,4.152-1.836-8.142-1.836-8.142l-2.952-45.33s.8-13.488-.4-13.966a1.727,1.727,0,0,1-.5-.314,5.1,5.1,0,0,1-1.093-3.358c-.078-1.439-1.994-.719-1.994-.719l1.116,1.439-9.889,6.01-.086.055a11.264,11.264,0,0,0-1.188-.541,4.283,4.283,0,0,0-2.8-.337,2.7,2.7,0,0,0-1.047.941,11.853,11.853,0,0,0-1.346,2.73l-3.591,6.065s-1.836,8.056-1.836,8.378-.558,7.662-1.2,8.459-1.277,4.79-1.039,5.987a32.6,32.6,0,0,1-.4,5.665c-2.633,2.155-3.991,9.495-3.991,9.495s-4.149,8.22-4.468,9.178S705.761,269.344,707.039,270.141Z" transform="translate(-184.379 -168.232)"/><path class="c" d="M785.85,211.01a20.216,20.216,0,0,0,3.772,3.453l8.088-6.83a5.1,5.1,0,0,1-1.093-3.358c-.078-1.439-1.994-.719-1.994-.719l.23.288a1.286,1.286,0,0,1-.345,1.887Z" transform="translate(-241.556 -169.009)"/><path class="p" d="M785.85,209.9a20.216,20.216,0,0,0,3.772,3.453l8.088-6.83a5.1,5.1,0,0,1-1.093-3.358c-.078-1.439-1.994-.719-1.994-.719l.23.288a1.286,1.286,0,0,1-.345,1.887Z" transform="translate(-241.556 -168.218)"/><path class="c" d="M772.85,229.5c1.044,1.252,2.526,2.667,2.457,1.956s.883-2.276,1.49-2.978a4.416,4.416,0,0,0-2.9.078A2.734,2.734,0,0,0,772.85,229.5Z" transform="translate(-232.297 -186.74)"/><path class="p" d="M772.29,228.225c1.047,1.249,2.526,2.667,2.457,1.956s.785-1.859,1.393-2.561a4.3,4.3,0,0,0-2.8-.34A2.688,2.688,0,0,0,772.29,228.225Z" transform="translate(-231.898 -185.945)"/><circle class="q" cx="0.639" cy="0.639" r="0.639" transform="translate(542.372 47.64)"/><circle class="q" cx="0.639" cy="0.639" r="0.639" transform="translate(537.529 64.877)"/><circle class="q" cx="0.639" cy="0.639" r="0.639" transform="translate(532.048 82.33)"/><circle class="q" cx="0.639" cy="0.639" r="0.639" transform="translate(531.89 101.322)"/><circle class="q" cx="0.639" cy="0.639" r="0.639" transform="translate(539.552 55.779)"/><circle class="q" cx="0.639" cy="0.639" r="0.639" transform="translate(535.242 73.497)"/><circle class="q" cx="0.639" cy="0.639" r="0.639" transform="translate(531.039 90.895)"/><circle class="q" cx="0.639" cy="0.639" r="0.639" transform="translate(531.997 103.451)"/><path class="c" d="M791.846,217.765s-.107-.958,1.277.691a16.849,16.849,0,0,0,3.991,3.087s5.907,4.149,6.223,6.065,2.233,10.214,1.223,12.982-8.726,16.014-8.726,16.014a7.188,7.188,0,0,1,1.545,5.213c-.469,2.82-1.065,6.7-.8,7.555s-.319,2.978.575,3.723,1.861,2.014-.958,3.726c0,0-.532,1.439-.055,1.755s-7.075,3.619-10.056,1.862-8.344-15.8-8.459-18.94,1.649-13.523,2.607-15.962,3.832-11.969,5.055-14.1S791.846,217.765,791.846,217.765Z" transform="translate(-235.695 -179.061)"/><path class="l" d="M792.934,217.765s-.106-.958,1.277.691a16.849,16.849,0,0,0,3.991,3.087s5.9,4.149,6.226,6.065,2.233,10.214,1.223,12.982-8.738,16.014-8.738,16.014a7.188,7.188,0,0,1,1.545,5.213c-.469,2.82-1.064,6.7-.8,7.555s-.319,2.978.575,3.723,1.861,2.014-.958,3.726c0,0-.532,1.439-.055,1.755s-7.075,3.619-10.056,1.862-8.344-15.8-8.459-18.94,1.649-13.523,2.607-15.962,3.832-11.969,5.055-14.1S792.934,217.765,792.934,217.765Z" transform="translate(-236.465 -179.061)"/><path class="c" d="M824.627,249.88s-4.575,5.055-4.417,8.407C820.21,258.287,820.147,252.861,824.627,249.88Z" transform="translate(-266.028 -202.134)"/><path class="c" d="M800.518,278.73c0,.161-3.084,11.652-2.926,13.088s-.9,5.691-.9,5.691l-1.439-.374s1.116-5.9,1.329-8.085S800.518,278.73,800.518,278.73Z" transform="translate(-248.252 -222.683)"/><path class="c" d="M809.31,392.64c.106.161,7.291,8.3,5.268,8.885S809.31,392.64,809.31,392.64Z" transform="translate(-258.267 -303.819)"/><path class="c" d="M829.84,385.43c.158.106,2.877,5.852,3.191,4.316s-2.339,4.2-2.765-.055Z" transform="translate(-272.89 -298.684)"/><path class="c" d="M738.458,223.87s-2.966-1.807-6.692,2.82c0,0-2.713,1.545-3.51,1.916s-1.7,10.269-1.7,10.269-1.755,4.255-1.277,6.7-1.381,10.856-1.381,10.856-3.087,15.108-2.981,15.537,3.139-4.736,3.084-7.288,2.555-10.536,2.929-11.014,2.929-14.156,2.929-14.156,2.074-5.8,3.4-7.714,2.981-5.533,3.671-6.172a6.967,6.967,0,0,1,1.649-1.065Z" transform="translate(-195.301 -183.359)"/><path class="l" d="M737.668,223.87s-3.326-1.807-7.052,2.82c0,0-2.713,1.545-3.51,1.916s-1.7,10.269-1.7,10.269-1.755,4.255-1.278,6.7-1.381,10.856-1.381,10.856-3.087,15.108-2.981,15.537,3.139-4.736,3.087-7.288,2.552-10.536,2.926-11.014,2.926-14.153,2.926-14.153,2.074-5.8,3.4-7.714,2.981-5.533,3.671-6.172a6.539,6.539,0,0,1,1.968-1.065Z" transform="translate(-194.482 -183.359)"/><path class="k" d="M695.138,333.7s-6.33-4.149-9.391-2.1-8.056,4.949-3.139,7.052,11.73,1.7,11.73,1.7Z" transform="translate(-166.545 -259.935)"/><path class="c" d="M745.711,469.374c.944,2.014,1.726,12.2,2.25,15.422.757-1.295,1.672-2.846,1.979-3.329a42.847,42.847,0,0,0,1.862-4.744c-.6-1.462-2.261-5.651-2.261-7.193,0-1.876-3.032-4.229-3.032-4.229A3.523,3.523,0,0,0,745.711,469.374Z" transform="translate(-212.716 -355.574)"/><path class="c" d="M794.152,584.027s-7.023-3-9.1-.863S794.152,584.027,794.152,584.027Z" transform="translate(-240.807 -438.981)"/><path class="c" d="M803.58,592.22s7.1,3.991,4.67,4.667S803.58,592.22,803.58,592.22Z" transform="translate(-254.185 -445.977)"/><path class="c" d="M729.8,580.15s3.033.2,1.873.8S729.8,580.15,729.8,580.15Z" transform="translate(-201.633 -437.38)"/><path class="c" d="M716.62,583.34c.04.2,8.819,3.033,7.1,4.316S716.62,583.34,716.62,583.34Z" transform="translate(-192.245 -439.652)"/><path class="c" d="M797.741,663.195c-1.315-.2-8.657-3.591-5.786-1.151A5.7,5.7,0,0,0,797.741,663.195Z" transform="translate(-245.435 -495.085)"/><path class="c" d="M791.935,677.51a2.853,2.853,0,0,1-3.073,2.155C786.429,679.346,791.935,677.51,791.935,677.51Z" transform="translate(-243.26 -506.728)"/><path class="c" d="M793.831,690.806c-.44-.121-5.668-2.515-5.786-1.4s4.986,3.073,5.386,2.474a2.133,2.133,0,0,0,.4-1.076Z" transform="translate(-243.118 -514.991)"/><path class="c" d="M729.99,682.645c-.639-.04-6.617-1.954-7.82-.239Z" transform="translate(-196.198 -509.707)"/><path class="c" d="M724.832,687.453a2.118,2.118,0,0,0-2.074-.437C721.721,687.5,724.832,687.453,724.832,687.453Z" transform="translate(-196.466 -513.399)"/><path class="c" d="M773.175,723.28a1.778,1.778,0,0,1-1.355,1.4Z" transform="translate(-231.563 -539.329)"/><path class="n" d="M670.281,704.394c.4,1.634,5.987,1.8,8.66,1.355s8.22-2.023,8.22-2.023,5.826-.558,7.541-1.277.36-2.555.36-2.555v-.17c.04-.667.161-3.087-.25-3.74-.48-.757-.2-3.231-.2-3.231s-8.257,1.6-8.419.837a4.3,4.3,0,0,0-2.034-2.074c-.6-.239-1.039,1.994-1.039,1.994s-3.74,3.194-3.991,4.35-2.877,1.755-2.877,1.755a45.427,45.427,0,0,0-5.029,1.677,1.936,1.936,0,0,0-1.1,1.548A4.412,4.412,0,0,0,670.281,704.394Z" transform="translate(-159.115 -516.691)"/><path class="c" d="M670.309,724.76c.4,1.634,5.987,1.8,8.66,1.355s8.22-2.023,8.22-2.023,5.826-.558,7.541-1.277.36-2.555.36-2.555v-.17l-8.344,1.847s-4.109,1.755-6.741,1.755c-2.3,0-7.452.944-9.843-.486A4.411,4.411,0,0,0,670.309,724.76Z" transform="translate(-159.143 -537.057)"/><path class="c" d="M710,714.4s.4,2.635,2,3.513Z" transform="translate(-187.53 -533.004)"/><path class="c" d="M746.37,152.258a2.589,2.589,0,0,0,.472.2,2.94,2.94,0,0,0,2.146-.7c.665-.4,1.582-.7,2.158-.181.751.682.207,2.141.981,2.8.489.417,1.266.288,1.81.619a2.565,2.565,0,0,1,.846,1.741c.138.65.411,1.387,1.047,1.577s1.223-.227,1.847-.2c.129,0,.288.02.368-.075a.386.386,0,0,0,.06-.288,6.155,6.155,0,0,1,.2-2.3,2.225,2.225,0,0,1,1.62-1.519c1.122-.173,2.063.811,2.722,1.726a28.266,28.266,0,0,1,1.887,3.038,2.243,2.243,0,0,1,.095.21,9.637,9.637,0,0,0,.829-3.93,9.736,9.736,0,0,0-19.093-2.7Z" transform="translate(-213.435 -127.583)"/><path class="r" d="M749.721,141.743c-.659-.924-1.6-1.9-2.722-1.726a2.2,2.2,0,0,0-1.62,1.516,6.109,6.109,0,0,0-.2,2.3.4.4,0,0,1-.066.288c-.086.095-.236.081-.365.075-.624-.023-1.246.383-1.847.2s-.909-.926-1.047-1.577a2.49,2.49,0,0,0-.846-1.726c-.558-.34-1.321-.2-1.81-.619-.774-.659-.23-2.118-.981-2.8-.575-.524-1.493-.224-2.158.178a2.956,2.956,0,0,1-2.146.708c-.253-.069-.48-.216-.728-.311-1.183-.449-2.716.314-3.689-.5a2.834,2.834,0,0,1-.737-1.275,8.125,8.125,0,0,1-.538-2.031,2.716,2.716,0,0,1,.541-1.982c.633-.748,1.7-.932,2.512-1.485a6.278,6.278,0,0,0,1.605-1.893,7.117,7.117,0,0,1,1.557-1.936,2.3,2.3,0,0,1,2.342-.365,2.638,2.638,0,0,0,.768.363,1.6,1.6,0,0,0,.863-.233c2.768-1.3,5.99-1.073,9.026-.685a11.709,11.709,0,0,1,3.553.863,4.26,4.26,0,0,1,2.4,2.627c.247.938.058,1.956.357,2.877.2.627.616,1.151.863,1.781.647,1.68-.127,3.527-.455,5.3-.36,1.936-.178,4.028-1,5.867-.161.36-.342.99-.748.751-.288-.176-.593-1.2-.765-1.513A28,28,0,0,0,749.721,141.743Z" transform="translate(-200.493 -113.849)"/><path class="c" d="M763.318,266.549l1.439,4.1s-3.407,12.66-5,15.324-3.936,6.065-3.936,6.065A14.613,14.613,0,0,1,747.3,293.1c-4.578-.9-17.93-3.3-17.93-3.3a1.771,1.771,0,0,1-1.7-.639c-.584-.852-3.62-1.277-3.62-1.277s-3.51-5.107.8-7.236c0,0,.529,1.171,2.82.374s2.978.639,2.978.639a24.141,24.141,0,0,0,5.8.478c2.074-.268,7.236-.371,7.768-.8a.682.682,0,0,1,.958.052,5.814,5.814,0,0,0,1.7-.955c.426-.478,1.013.529,1.013.529s.745-.423.532-.955.69-2.555.69-2.555a5.16,5.16,0,0,0,.158-2.394C749,274,750.6,270.172,750.6,270.172a6.769,6.769,0,0,0-.213-1.916c-.268-.958,2.014-2.877,2.014-2.877s2.236-10.853,6.971-7.288A9.307,9.307,0,0,1,763.318,266.549Z" transform="translate(-196.58 -207.47)"/><path class="l" d="M764.444,266.549l1.439,4.1s-3.407,12.66-5,15.324-3.936,6.065-3.936,6.065a14.619,14.619,0,0,1-8.514,1.065c-4.575-.9-17.936-3.3-17.936-3.3a1.771,1.771,0,0,1-1.7-.639c-.584-.852-3.619-1.277-3.619-1.277s-3.51-5.107.8-7.236c0,0,.529,1.171,2.82.374s2.978.639,2.978.639a24.231,24.231,0,0,0,5.8.478c2.06-.268,7.236-.371,7.768-.8a.679.679,0,0,1,.955.052,5.817,5.817,0,0,0,1.7-.955c.426-.478,1.013.529,1.013.529s.742-.423.529-.955.693-2.555.693-2.555a5.161,5.161,0,0,0,.158-2.394c-.268-1.065,1.332-4.891,1.332-4.891a6.771,6.771,0,0,0-.213-1.916c-.268-.958,2.014-2.877,2.014-2.877s2.236-10.853,6.971-7.288A9.319,9.319,0,0,1,764.444,266.549Z" transform="translate(-197.378 -207.47)"/><path class="c" d="M743.2,348.82c.055.371,1.226,1.862.8,2.126s-1.119.106-.48.958.575,2.129.161,1.968-1.116-2.074-1.116-2.82A8.372,8.372,0,0,1,743.2,348.82Z" transform="translate(-210.722 -272.607)"/><path class="c" d="M799.7,345.86s.319,3.723,2.926,4.788S799.7,345.86,799.7,345.86Z" transform="translate(-251.422 -270.499)"/><path class="c" d="M818.56,341.42c.158.052,3.723,1.968,2.126,3.084S818.56,341.42,818.56,341.42Z" transform="translate(-264.855 -267.336)"/><path class="c" d="M819.3,332.17s5.213,1.065,3.453,1.968S819.3,332.17,819.3,332.17Z" transform="translate(-265.382 -260.747)"/><g class="s" transform="translate(527.704 19.812)"><path d="M787.316,163.937a2.221,2.221,0,0,1,1.62-1.516c1.122-.173,2.063.809,2.722,1.726a27.964,27.964,0,0,1,1.887,3.035c.173.319.466,1.341.765,1.516.406.239.575-.394.748-.754.823-1.83.642-3.927,1-5.864a34.081,34.081,0,0,0,.685-3.421,16.787,16.787,0,0,1-.685,4.273c-.36,1.936-.178,4.028-1,5.864-.161.36-.342.99-.748.754-.288-.176-.593-1.2-.765-1.516A27.976,27.976,0,0,0,791.669,165c-.659-.926-1.6-1.9-2.722-1.726a2.2,2.2,0,0,0-1.62,1.516,4.22,4.22,0,0,0-.213,1.2A5.5,5.5,0,0,1,787.316,163.937Z" transform="translate(-770.145 -156.971)"/><path d="M728.739,154.7a2.851,2.851,0,0,0,.737,1.275c.972.811,2.506.046,3.688.5a7.258,7.258,0,0,0,.728.308,2.879,2.879,0,0,0,2.146-.7c.665-.417,1.583-.7,2.158-.181.751.682.207,2.141.981,2.8.489.42,1.266.288,1.81.619a2.562,2.562,0,0,1,.846,1.726c.138.636.411,1.387,1.047,1.577s1.223-.227,1.847-.2c.129,0,.288.02.365-.075a.212.212,0,0,0,.046-.078c0,.213,0,.426.02.639a.4.4,0,0,1-.066.288c-.086.095-.236.081-.365.075-.624-.023-1.246.383-1.847.2s-.909-.929-1.047-1.577a2.56,2.56,0,0,0-.846-1.741c-.558-.354-1.321-.2-1.81-.619-.774-.656-.23-2.115-.981-2.8-.575-.521-1.493-.222-2.158.181a2.94,2.94,0,0,1-2.146.7c-.253-.069-.48-.213-.728-.308-1.182-.452-2.716.314-3.688-.5a2.845,2.845,0,0,1-.737-1.277,8.054,8.054,0,0,1-.538-2.031,3.282,3.282,0,0,1,.017-.714A8.63,8.63,0,0,0,728.739,154.7Z" transform="translate(-728.189 -152.79)"/></g><ellipse class="t" cx="17.11" cy="3.291" rx="17.11" ry="3.291" transform="translate(607.666 179.44)"/><ellipse class="e" cx="1.991" cy="2.607" rx="1.991" ry="2.607" transform="translate(622.501 178.726)"/><ellipse class="e" cx="1.991" cy="2.607" rx="1.991" ry="2.607" transform="translate(622.501 175.538)"/><ellipse class="e" cx="1.991" cy="2.607" rx="1.991" ry="2.607" transform="translate(622.501 172.353)"/><ellipse class="e" cx="1.991" cy="2.607" rx="1.991" ry="2.607" transform="translate(622.501 169.165)"/><ellipse class="e" cx="1.991" cy="2.607" rx="1.991" ry="2.607" transform="translate(622.501 165.978)"/><ellipse class="e" cx="1.991" cy="2.607" rx="1.991" ry="2.607" transform="translate(622.501 162.79)"/><ellipse class="e" cx="1.991" cy="2.607" rx="1.991" ry="2.607" transform="translate(622.501 159.602)"/><path class="o" d="M1048.3,533.658a9.863,9.863,0,0,0,.742-1.093l-5.236-.863,5.662.04a9.566,9.566,0,0,0,.181-7.558l-7.593,3.939,7-5.15a9.544,9.544,0,1,0-15.761,10.68,9.65,9.65,0,0,0-1.088,1.741l6.8,3.53-7.253-2.425a9.549,9.549,0,0,0,1.536,8.96,9.541,9.541,0,1,0,15,0,9.552,9.552,0,0,0,0-11.8Z" transform="translate(-416.35 -393.259)"/><path class="u" d="M1031.28,592.062a9.495,9.495,0,0,0,2.04,5.9,9.541,9.541,0,1,0,15,0C1049.613,596.341,1031.28,590.992,1031.28,592.062Z" transform="translate(-416.372 -445.765)"/><ellipse class="t" cx="8.608" cy="1.654" rx="8.608" ry="1.654" transform="translate(496.19 174.733)"/><ellipse class="e" cx="1.001" cy="1.312" rx="1.001" ry="1.312" transform="translate(503.654 174.37)"/><ellipse class="e" cx="1.001" cy="1.312" rx="1.001" ry="1.312" transform="translate(503.654 172.768)"/><ellipse class="e" cx="1.001" cy="1.312" rx="1.001" ry="1.312" transform="translate(503.654 171.165)"/><ellipse class="e" cx="1.001" cy="1.312" rx="1.001" ry="1.312" transform="translate(503.654 169.563)"/><ellipse class="e" cx="1.001" cy="1.312" rx="1.001" ry="1.312" transform="translate(503.654 167.957)"/><ellipse class="e" cx="1.001" cy="1.312" rx="1.001" ry="1.312" transform="translate(503.654 166.354)"/><ellipse class="e" cx="1.001" cy="1.312" rx="1.001" ry="1.312" transform="translate(503.654 164.752)"/><path class="o" d="M639.9,603.81a4.711,4.711,0,0,0,.374-.547l-2.633-.434,2.848.023a4.831,4.831,0,0,0,.437-2.014,4.773,4.773,0,0,0-.348-1.8l-3.821,1.982,3.525-2.589a13.259,13.259,0,0,0-8.476,6.238l3.418,1.775-3.643-1.223a61.082,61.082,0,0,1,1.29,11A9.72,9.72,0,0,0,639.9,603.8Z" transform="translate(-131.494 -448.711)"/><path class="u" d="M631.33,633.115a19.09,19.09,0,0,1,1.543,9.462,4.8,4.8,0,0,0,7.028-6.492C640.545,635.267,631.33,632.577,631.33,633.115Z" transform="translate(-131.494 -475.056)"/><circle class="a" cx="7.366" cy="7.366" r="7.366" transform="translate(472.828 0)"/><circle class="a" cx="7.366" cy="7.366" r="7.366" transform="translate(463.08 35.74)"/><circle class="a" cx="4.393" cy="4.393" r="4.393" transform="translate(602.645 68.885)"/><circle class="a" cx="7.366" cy="7.366" r="7.366" transform="translate(583.952 46.322)"/><circle class="a" cx="7.366" cy="7.366" r="7.366" transform="translate(593.703 82.062)"/><circle class="a" cx="6.019" cy="6.019" r="6.019" transform="translate(490.436 110.023)"/></g></svg>