<svg xmlns="http://www.w3.org/2000/svg" width="301.414" height="301.414" viewBox="0 0 301.414 301.414"><defs><style>.a{opacity:0.2;}.b{fill:none;stroke:#d2c060;stroke-miterlimit:10;}</style></defs><g class="a" transform="translate(-6.399 125.04)"><path class="b" d="M7.106,25.667l150-150,150,150-150,150Z" transform="translate(0 0)"/><path class="b" d="M56.136-1.747,80.665-26.276,105.193-1.748,80.664,22.782Z" transform="translate(76.444 152.885)"/><path class="b" d="M26.276-49.913,52.22-23.969V-75.858Z" transform="translate(29.888 75.58)"/><path class="b" d="M120.97-49.913,95.026-75.858v51.889Z" transform="translate(137.08 75.58)"/><path class="b" d="M81.527-105.164,55.582-79.22h51.889Z" transform="translate(75.581 29.887)"/><path class="b" d="M81.527-10.469l25.945-25.945H55.582Z" transform="translate(75.581 137.079)"/><path class="b" d="M36.413-95.026V-45.97L85.47-95.026Z" transform="translate(45.694 45.693)"/><path class="b" d="M36.413-6.526H85.47L36.413-55.582Z" transform="translate(45.694 107.192)"/><path class="b" d="M124.914-55.582,75.858-6.526h49.056Z" transform="translate(107.193 107.193)"/><path class="b" d="M124.914-95.026H75.858L124.914-45.97Z" transform="translate(107.193 45.693)"/><path class="b" d="M186.413-45.97,137.357-95.026H85.47L36.414-45.97V5.916L85.47,54.973h51.887L186.413,5.916Z" transform="translate(45.694 45.693)"/></g></svg>