<svg xmlns="http://www.w3.org/2000/svg" width="19" height="19.18" viewBox="0 0 19 19.18"><defs><style>.a{fill:#bf9f41;stroke:#bf9f41;}</style></defs><path class="a" d="M18.084,8.213,9.183,0,.282,8.213a.307.307,0,0,0-.016.436A.312.312,0,0,0,.7,8.666l1.03-.951V18h14.9V7.715l1.03.951a.312.312,0,0,0,.439-.016A.307.307,0,0,0,18.084,8.213ZM7.321,17.383V12.449a1.862,1.862,0,0,1,3.724,0v4.934Zm8.69,0H11.665V12.449a2.483,2.483,0,0,0-4.966,0v4.934H2.355V7.142L9.183.842l6.828,6.3Z" transform="translate(0.317 0.68)"/></svg>