<svg xmlns="http://www.w3.org/2000/svg" width="18.487" height="18.709" viewBox="0 0 18.487 18.709"><defs><style>.a,.c{fill:#ccc;}.b,.c{stroke:none;}</style></defs><g class="a" transform="translate(0.117 0.409)"><path class="b" d="M 16.67796897888184 18.14999961853027 L 16.52796936035156 18.14999961853027 L 11.59350872039795 18.14999961853027 L 6.659038543701172 18.14999961853027 L 1.724578619003296 18.14999961853027 L 1.574578642845154 18.14999961853027 L 1.574578642845154 18 L 1.574578642845154 8.059030532836914 L 0.8030586242675781 8.775460243225098 C 0.7180386185646057 8.8543701171875 0.6072285771369934 8.897820472717285 0.4910286068916321 8.897820472717285 C 0.3637086153030396 8.897820472717285 0.2412786036729813 8.844449996948242 0.1551385968923569 8.751399993896484 C -0.0165913961827755 8.566439628601074 -0.00592139596119523 8.27577018737793 0.1790586113929749 8.103619575500488 L 9.024209022521973 -0.1099200025200844 L 9.126278877258301 -0.2046999931335449 L 9.228348731994629 -0.1099200025200844 L 18.07367897033691 8.103500366210938 C 18.16357803344727 8.187170028686523 18.21540832519531 8.300680160522461 18.21971893310547 8.423230171203613 C 18.22402954101563 8.545519828796387 18.18044853210449 8.662110328674316 18.09699821472168 8.751529693603516 C 18.01136779785156 8.844160079956055 17.88893890380859 8.89756965637207 17.76158905029297 8.89756965637207 C 17.64501953125 8.89756965637207 17.53409767150879 8.854020118713379 17.44927787780762 8.77495002746582 L 16.67796897888184 8.058719635009766 L 16.67796897888184 18 L 16.67796897888184 18.14999961853027 Z M 11.74350833892822 17.23319053649902 L 15.76115894317627 17.23319053649902 L 15.76115894317627 7.207432746887207 L 9.126278877258301 1.046341180801392 L 2.491388559341431 7.207432746887207 L 2.491388559341431 17.23319053649902 L 6.50903844833374 17.23319053649902 L 6.50903844833374 12.44873046875 C 6.50903844833374 11.00557994842529 7.683128833770752 9.831500053405762 9.126278877258301 9.831500053405762 C 10.56942844390869 9.831500053405762 11.74350833892822 11.00557994842529 11.74350833892822 12.44873046875 L 11.74350833892822 17.23319053649902 Z M 7.425848484039307 17.23319053649902 L 10.82669830322266 17.23319053649902 L 10.82669830322266 12.44873046875 C 10.82669830322266 11.51111030578613 10.06388854980469 10.74829959869385 9.126278877258301 10.74829959869385 C 8.188658714294434 10.74829959869385 7.425848484039307 11.51111030578613 7.425848484039307 12.44873046875 L 7.425848484039307 17.23319053649902 Z"/><path class="c" d="M 9.126278877258301 0 L 0.2812480926513672 8.213419914245605 C 0.1566486358642578 8.329380035400391 0.1492481231689453 8.524600028991699 0.2652091979980469 8.649499893188477 C 0.325653076171875 8.714791297912598 0.4082126617431641 8.747818946838379 0.4910335540771484 8.747818946838379 C 0.5662517547607422 8.747818946838379 0.6416854858398438 8.720583915710449 0.70098876953125 8.665539741516113 L 1.724578857421875 7.715029716491699 L 1.724578857421875 18 L 6.659038543701172 18 L 11.59350872039795 18 L 16.52796936035156 18 L 16.52796936035156 7.714730262756348 L 17.55156898498535 8.665229797363281 C 17.61077880859375 8.720430374145508 17.68633842468262 8.747570037841797 17.76158905029297 8.747570037841797 C 17.84454917907715 8.747570037841797 17.92688941955566 8.714570045471191 17.98733901977539 8.649189949035645 C 18.10360908508301 8.524600028991699 18.0962085723877 8.329380035400391 17.97160911560059 8.213419914245605 L 9.126278877258301 0 M 15.91115856170654 17.3831901550293 L 11.59350872039795 17.3831901550293 L 11.59350872039795 12.44873046875 C 11.59350872039795 11.08835983276367 10.48664855957031 9.981499671936035 9.126278877258301 9.981499671936035 C 7.765908241271973 9.981499671936035 6.659038543701172 11.08835983276367 6.659038543701172 12.44873046875 L 6.659038543701172 17.3831901550293 L 2.341388702392578 17.3831901550293 L 2.341388702392578 7.142020225524902 L 9.126278877258301 0.8416309356689453 L 15.91115856170654 7.142020225524902 L 15.91115856170654 17.3831901550293 M 10.97669792175293 17.3831901550293 L 7.275848388671875 17.3831901550293 L 7.275848388671875 12.44873046875 C 7.275848388671875 11.42821979522705 8.105768203735352 10.59829998016357 9.126278877258301 10.59829998016357 C 10.14677906036377 10.59829998016357 10.97669792175293 11.42821979522705 10.97669792175293 12.44873046875 L 10.97669792175293 17.3831901550293 M 9.126278877258301 -0.4093894958496094 L 9.330409049987793 -0.2198390960693359 L 18.17573928833008 7.993579864501953 C 18.29512786865234 8.104689598083496 18.36389923095703 8.255319595336914 18.36962890625 8.417949676513672 C 18.3753490447998 8.580320358276367 18.31747817993164 8.735139846801758 18.20666885375977 8.853870391845703 C 18.09319877624512 8.97659969329834 17.93062782287598 9.04757022857666 17.76158905029297 9.04757022857666 C 17.60691833496094 9.04757022857666 17.45967864990234 8.989709854125977 17.34699821472168 8.884659767150879 L 16.82796859741211 8.402701377868652 L 16.82796859741211 18 L 16.82796859741211 18.29999923706055 L 16.52796936035156 18.29999923706055 L 11.59350872039795 18.29999923706055 L 6.659038543701172 18.29999923706055 L 1.724578857421875 18.29999923706055 L 1.424577713012695 18.29999923706055 L 1.424577713012695 18 L 1.424577713012695 8.403006553649902 L 0.9051284790039063 8.885370254516602 C 0.7922477722167969 8.990150451660156 0.6451988220214844 9.047820091247559 0.49102783203125 9.047820091247559 C 0.3220481872558594 9.047820091247559 0.1594982147216797 8.976920127868652 0.0450592041015625 8.853300094604492 C -0.1827220916748047 8.607950210571289 -0.1685905456542969 8.222249984741211 0.07686805725097656 7.993809700012207 L 8.922138214111328 -0.2198390960693359 L 9.126278877258301 -0.4093894958496094 Z M 15.61115837097168 7.272845268249512 L 9.126278877258301 1.251031875610352 L 2.641388893127441 7.272845268249512 L 2.641388893127441 17.08319091796875 L 6.359038352966309 17.08319091796875 L 6.359038352966309 12.44873046875 C 6.359038352966309 10.92287063598633 7.600419044494629 9.681500434875488 9.126278877258301 9.681500434875488 C 10.65213871002197 9.681500434875488 11.89350891113281 10.92287063598633 11.89350891113281 12.44873046875 L 11.89350891113281 17.08319091796875 L 15.61115837097168 17.08319091796875 L 15.61115837097168 7.272845268249512 Z M 10.67669868469238 17.08319091796875 L 10.67669868469238 12.44873046875 C 10.67669868469238 11.59382057189941 9.981178283691406 10.89830017089844 9.126278877258301 10.89830017089844 C 8.271368980407715 10.89830017089844 7.575848579406738 11.59382057189941 7.575848579406738 12.44873046875 L 7.575848579406738 17.08319091796875 L 10.67669868469238 17.08319091796875 Z"/></g></svg>