<svg xmlns="http://www.w3.org/2000/svg" width="24.449" height="24.709" viewBox="0 0 24.449 24.709"><defs><style>.a,.c{fill:#d2c061;}.b,.c{stroke:none;}</style></defs><g class="a" transform="translate(0.117 0.409)"><path class="b" d="M 22.1263542175293 24.14999961853027 L 21.97635459899902 24.14999961853027 L 15.39707469940186 24.14999961853027 L 8.817784309387207 24.14999961853027 L 2.238504648208618 24.14999961853027 L 2.088504552841187 24.14999961853027 L 2.088504552841187 24 L 2.088504552841187 10.63070106506348 L 0.9757845401763916 11.66396999359131 C 0.8717045187950134 11.76056957244873 0.7360445261001587 11.81375980377197 0.5937745571136475 11.81375980377197 C 0.4378945529460907 11.81375980377197 0.2880245447158813 11.74845027923584 0.1826045513153076 11.63457012176514 C -0.02766545489430428 11.40808010101318 -0.01460545603185892 11.05220031738281 0.2118745446205139 10.84142017364502 L 12.00535488128662 -0.1099200025200844 L 12.10742473602295 -0.2046999931335449 L 12.20949459075928 -0.1099200025200844 L 24.00327491760254 10.84130001068115 C 24.11332511901855 10.9437198638916 24.17676544189453 11.0826997756958 24.18205451965332 11.2327299118042 C 24.18732452392578 11.38243007659912 24.13397407531738 11.52515029907227 24.03184509277344 11.63459968566895 C 23.92694473266602 11.74806022644043 23.77708435058594 11.8134298324585 23.62117385864258 11.8134298324585 C 23.47845458984375 11.8134298324585 23.34268379211426 11.76014041900635 23.23886489868164 11.66335964202881 L 22.1263542175293 10.63029098510742 L 22.1263542175293 24 L 22.1263542175293 24.14999961853027 Z M 15.54707431793213 23.02758979797363 L 21.00394439697266 23.02758979797363 L 21.00394439697266 9.588102340698242 L 12.10742473602295 1.326881289482117 L 3.210914611816406 9.588102340698242 L 3.210914611816406 23.02758979797363 L 8.667784690856934 23.02758979797363 L 8.667784690856934 16.59831047058105 C 8.667784690856934 14.70168018341064 10.21080493927002 13.15865993499756 12.10742473602295 13.15865993499756 C 14.00405406951904 13.15865993499756 15.54707431793213 14.70168018341064 15.54707431793213 16.59831047058105 L 15.54707431793213 23.02758979797363 Z M 9.790194511413574 23.02758979797363 L 14.42466449737549 23.02758979797363 L 14.42466449737549 16.59831047058105 C 14.42466449737549 15.32057952880859 13.38515472412109 14.2810697555542 12.10742473602295 14.2810697555542 C 10.82970428466797 14.2810697555542 9.790194511413574 15.32057952880859 9.790194511413574 16.59831047058105 L 9.790194511413574 23.02758979797363 Z"/><path class="c" d="M 12.10742473602295 0 L 0.3140640258789063 10.95121955871582 C 0.1479339599609375 11.10583019256592 0.1380653381347656 11.36612987518311 0.2926750183105469 11.53267002105713 C 0.3732681274414063 11.61972522735596 0.4833431243896484 11.66375827789307 0.5937690734863281 11.66375827789307 C 0.6940631866455078 11.66375827789307 0.7946453094482422 11.62744140625 0.8737144470214844 11.55405044555664 L 2.238504409790039 10.28670978546143 L 2.238504409790039 24 L 8.817784309387207 24 L 15.39707469940186 24 L 21.97635459899902 24 L 21.97635459899902 10.28629970550537 L 23.34114456176758 11.55364036560059 C 23.42009544372559 11.62724018096924 23.52084541320801 11.66343021392822 23.62117385864258 11.66343021392822 C 23.7317943572998 11.66343021392822 23.84158515930176 11.61942958831787 23.92217445373535 11.53225994110107 C 24.07720375061035 11.36612987518311 24.06733512878418 11.10583019256592 23.90120506286621 10.95121955871582 L 12.10742473602295 0 M 21.15394401550293 23.17758941650391 L 15.39707469940186 23.17758941650391 L 15.39707469940186 16.59831047058105 C 15.39707469940186 14.78448009490967 13.92125415802002 13.30865955352783 12.10742473602295 13.30865955352783 C 10.29360485076904 13.30865955352783 8.817784309387207 14.78448009490967 8.817784309387207 16.59831047058105 L 8.817784309387207 23.17758941650391 L 3.060914993286133 23.17758941650391 L 3.060914993286133 9.522689819335938 L 12.10742473602295 1.122180938720703 L 21.15394401550293 9.522689819335938 L 21.15394401550293 23.17758941650391 M 14.57466411590576 23.17758941650391 L 9.640194892883301 23.17758941650391 L 9.640194892883301 16.59831047058105 C 9.640194892883301 15.23762989044189 10.74675464630127 14.13107013702393 12.10742473602295 14.13107013702393 C 13.46810436248779 14.13107013702393 14.57466411590576 15.23762989044189 14.57466411590576 16.59831047058105 L 14.57466411590576 23.17758941650391 M 12.10742473602295 -0.4093894958496094 L 12.31155490875244 -0.2198390960693359 L 24.1053352355957 10.73138046264648 C 24.24486541748047 10.86122989654541 24.32526397705078 11.03732013702393 24.33195495605469 11.22743988037109 C 24.33864402770996 11.41722011566162 24.27101516723633 11.59815979003906 24.14150428771973 11.73694038391113 C 24.00878524780273 11.88049983978271 23.81878471374512 11.96343040466309 23.62117385864258 11.96343040466309 C 23.44035530090332 11.96343040466309 23.26825523376465 11.89583015441895 23.13657379150391 11.77307987213135 L 22.27635383605957 10.97428226470947 L 22.27635383605957 24 L 22.27635383605957 24.29999923706055 L 21.97635459899902 24.29999923706055 L 15.39707469940186 24.29999923706055 L 8.817784309387207 24.29999923706055 L 2.238504409790039 24.29999923706055 L 1.938505172729492 24.29999923706055 L 1.938505172729492 24 L 1.938505172729492 10.97469329833984 L 1.077854156494141 11.77388954162598 C 0.9459152221679688 11.89634037017822 0.7740154266357422 11.96376037597656 0.5937747955322266 11.96376037597656 C 0.3962440490722656 11.96376037597656 0.2062549591064453 11.88092041015625 0.07253456115722656 11.73647975921631 C -0.1938056945800781 11.44958019256592 -0.1772747039794922 10.99866962432861 0.1096839904785156 10.73161029815674 L 11.90328407287598 -0.2198390960693359 L 12.10742473602295 -0.4093894958496094 Z M 20.85394477844238 9.653515815734863 L 12.10742473602295 1.531581878662109 L 3.36091423034668 9.653514862060547 L 3.36091423034668 22.87759017944336 L 8.517784118652344 22.87759017944336 L 8.517784118652344 16.59831047058105 C 8.517784118652344 14.61896991729736 10.12809467315674 13.00866031646729 12.10742473602295 13.00866031646729 C 14.08676433563232 13.00866031646729 15.69707489013672 14.61896991729736 15.69707489013672 16.59831047058105 L 15.69707489013672 22.87759017944336 L 20.85394477844238 22.87759017944336 L 20.85394477844238 9.653515815734863 Z M 14.27466487884521 22.87759017944336 L 14.27466487884521 16.59831047058105 C 14.27466487884521 15.40328979492188 13.30244445800781 14.43107032775879 12.10742473602295 14.43107032775879 C 10.91241455078125 14.43107032775879 9.940194129943848 15.40328979492188 9.940194129943848 16.59831047058105 L 9.940194129943848 22.87759017944336 L 14.27466487884521 22.87759017944336 Z"/></g></svg>