<svg xmlns="http://www.w3.org/2000/svg" width="18.6" height="18.708" viewBox="0 0 18.6 18.708"><defs><style>.a,.c{fill:#fff;}.b,.c{stroke:none;}</style></defs><g class="a" transform="translate(0.117 0.408)"><path class="b" d="M 16.78104972839355 18.14999961853027 L 16.63105010986328 18.14999961853027 L 11.66545963287354 18.14999961853027 L 6.69987964630127 18.14999961853027 L 1.734299898147583 18.14999961853027 L 1.584299802780151 18.14999961853027 L 1.584299802780151 18 L 1.584299802780151 8.057559967041016 L 0.8059698343276978 8.775779724121094 C 0.7206398844718933 8.854479789733887 0.6094998717308044 8.897820472717285 0.4929798543453217 8.897820472717285 C 0.3652898669242859 8.897820472717285 0.2424598634243011 8.844579696655273 0.1559798568487167 8.751749992370605 C 0.07232985645532608 8.662210464477539 0.02863985672593117 8.545370101928711 0.03310985863208771 8.422900199890137 C 0.03758985549211502 8.30027961730957 0.08975985646247864 8.186770439147949 0.1800198554992676 8.103300094604492 L 9.080949783325195 -0.1102399975061417 L 9.182669639587402 -0.2040999978780746 L 9.284389495849609 -0.1102399975061417 L 18.18551063537598 8.103179931640625 C 18.27602958679199 8.18690013885498 18.32819938659668 8.30055046081543 18.33251953125 8.423299789428711 C 18.33683967590332 8.545740127563477 18.29295921325684 8.662429809570313 18.20895957946777 8.751870155334473 C 18.12298965454102 8.844280242919922 18.00016021728516 8.89756965637207 17.87244033813477 8.89756965637207 C 17.75553894042969 8.89756965637207 17.64427947998047 8.854129791259766 17.55916023254395 8.775259971618652 L 16.78104972839355 8.057248115539551 L 16.78104972839355 18 L 16.78104972839355 18.14999961853027 Z M 11.81546020507813 17.23319053649902 L 15.86034965515137 17.23319053649902 L 15.86034965515137 7.207708835601807 L 9.182669639587402 1.045744299888611 L 2.504999876022339 7.207708358764648 L 2.504999876022339 17.23319053649902 L 6.549880027770996 17.23319053649902 L 6.549880027770996 12.44873046875 C 6.549880027770996 11.00557994842529 7.730939865112305 9.831500053405762 9.182669639587402 9.831500053405762 C 10.6343994140625 9.831500053405762 11.81546020507813 11.00557994842529 11.81546020507813 12.44873046875 L 11.81546020507813 17.23319053649902 Z M 7.470579624176025 17.23319053649902 L 10.8947696685791 17.23319053649902 L 10.8947696685791 12.44873046875 C 10.8947696685791 11.51111030578613 10.12672996520996 10.74829959869385 9.182669639587402 10.74829959869385 C 8.238619804382324 10.74829959869385 7.470579624176025 11.51111030578613 7.470579624176025 12.44873046875 L 7.470579624176025 17.23319053649902 Z"/><path class="c" d="M 9.182669639587402 0 L 0.2818698883056641 8.213419914245605 C 0.1564903259277344 8.329380035400391 0.1490402221679688 8.524600028991699 0.2657299041748047 8.649499893188477 C 0.3265552520751953 8.714791297912598 0.4096355438232422 8.747818946838379 0.4929771423339844 8.747818946838379 C 0.5686702728271484 8.747818946838379 0.6445751190185547 8.720583915710449 0.7042503356933594 8.665539741516113 L 1.73430061340332 7.71504020690918 L 1.73430061340332 18 L 6.69987964630127 18 L 11.66545963287354 18 L 16.63105010986328 18 L 16.63105010986328 7.714730262756348 L 17.66110038757324 8.665229797363281 C 17.72068023681641 8.720430374145508 17.79672050476074 8.747570037841797 17.87244033813477 8.747570037841797 C 17.95593070983887 8.747570037841797 18.03878974914551 8.714570045471191 18.0996208190918 8.649189949035645 C 18.21661949157715 8.524600028991699 18.20916938781738 8.329380035400391 18.08378982543945 8.213419914245605 L 9.182669639587402 0 M 16.01034927368164 17.3831901550293 L 11.66545963287354 17.3831901550293 L 11.66545963287354 12.44873046875 C 11.66545963287354 11.08835983276367 10.55162048339844 9.981499671936035 9.182669639587402 9.981499671936035 C 7.813730239868164 9.981499671936035 6.69987964630127 11.08835983276367 6.69987964630127 12.44873046875 L 6.69987964630127 17.3831901550293 L 2.354999542236328 17.3831901550293 L 2.354999542236328 7.142020225524902 L 9.182669639587402 0.8416309356689453 L 16.01034927368164 7.142020225524902 L 16.01034927368164 17.3831901550293 M 11.04476928710938 17.3831901550293 L 7.320579528808594 17.3831901550293 L 7.320579528808594 12.44873046875 C 7.320579528808594 11.42821979522705 8.155730247497559 10.59829998016357 9.182669639587402 10.59829998016357 C 10.20961952209473 10.59829998016357 11.04476928710938 11.42821979522705 11.04476928710938 12.44873046875 L 11.04476928710938 17.3831901550293 M 9.182669639587402 -0.4082107543945313 L 9.386110305786133 -0.2204799652099609 L 18.28722953796387 7.992939949035645 C 18.4074592590332 8.104129791259766 18.4766902923584 8.255009651184082 18.48242950439453 8.418020248413086 C 18.4881591796875 8.580719947814941 18.42987060546875 8.735750198364258 18.31830978393555 8.854559898376465 C 18.20453071594238 8.976849555969238 18.04166984558105 9.04757022857666 17.87244033813477 9.04757022857666 C 17.71761894226074 9.04757022857666 17.57015991210938 8.98993968963623 17.45721054077148 8.885299682617188 L 16.93104934692383 8.399771690368652 L 16.93104934692383 18 L 16.93104934692383 18.29999923706055 L 16.63105010986328 18.29999923706055 L 11.66545963287354 18.29999923706055 L 6.69987964630127 18.29999923706055 L 1.73430061340332 18.29999923706055 L 1.434299468994141 18.29999923706055 L 1.434299468994141 18 L 1.434299468994141 8.400078773498535 L 0.9076995849609375 8.88601016998291 C 0.7945594787597656 8.99036979675293 0.6473007202148438 9.047820091247559 0.4929790496826172 9.047820091247559 C 0.3238296508789063 9.047820091247559 0.1609897613525391 8.977179527282715 0.04623031616210938 8.854000091552734 C -0.06472969055175781 8.735230445861816 -0.1227207183837891 8.580080032348633 -0.116790771484375 8.41742992401123 C -0.11083984375 8.254619598388672 -0.04159927368164063 8.103949546813965 0.0781707763671875 7.993180274963379 L 8.979219436645508 -0.2204704284667969 L 9.182669639587402 -0.4082107543945313 Z M 15.71035003662109 7.273396492004395 L 9.182669639587402 1.249837875366211 L 2.654999732971191 7.273396492004395 L 2.654999732971191 17.08319091796875 L 6.399879455566406 17.08319091796875 L 6.399879455566406 12.44873046875 C 6.399879455566406 10.92287063598633 7.648229598999023 9.681500434875488 9.182669639587402 9.681500434875488 C 10.71710968017578 9.681500434875488 11.9654598236084 10.92287063598633 11.9654598236084 12.44873046875 L 11.9654598236084 17.08319091796875 L 15.71035003662109 17.08319091796875 L 15.71035003662109 7.273396492004395 Z M 10.74477005004883 17.08319091796875 L 10.74477005004883 12.44873046875 C 10.74477005004883 11.59382057189941 10.04401016235352 10.89830017089844 9.182669639587402 10.89830017089844 C 8.321330070495605 10.89830017089844 7.620579719543457 11.59382057189941 7.620579719543457 12.44873046875 L 7.620579719543457 17.08319091796875 L 10.74477005004883 17.08319091796875 Z"/></g></svg>