<svg xmlns="http://www.w3.org/2000/svg" width="120" height="13.267" viewBox="0 0 120 13.267"><defs><style>.a{fill:#fff;}</style></defs><g transform="translate(0 0)"><path class="a" d="M88.8,4.018c0,2.046,1.35,3.049,3.118,3.725.935.364,1.818.641,1.818,1.871a1.3,1.3,0,0,1-1.281,1.315,1.887,1.887,0,0,1-1.7-1.124l-1.974.847a3.766,3.766,0,0,0,3.62,2.736h.155A3.7,3.7,0,0,0,96.21,9.615a3.535,3.535,0,0,0-1.853-3.431,16.165,16.165,0,0,0-1.733-.812c-.728-.312-1.351-.831-1.351-1.455a1.255,1.255,0,0,1,1.161-1.265,1.2,1.2,0,0,1,1.143.727l2.234-1.072A3.364,3.364,0,0,0,92.59.157,3.591,3.591,0,0,0,88.8,4.018Z" transform="translate(-69.283 -0.123)"/><path class="a" d="M141.681.628,136.5,13.619h2.668l.969-2.339a.138.138,0,0,1,.139-.085h4.694a.136.136,0,0,1,.138.085l1.022,2.339h2.651L143.57.628h-1.888Zm-.571,8.211c0-.034,0-.051.018-.07l1.454-3.653.052-.069.034.035c0,.016,0,.016.017.034l1.438,3.653a.067.067,0,0,1,.018.052c0,.053-.018.069-.07.069H141.18c-.052,0-.07-.016-.07-.051Z" transform="translate(-106.526 -0.49)"/><path class="a" d="M206.392.628V13.619h2.477V8.441a.093.093,0,0,1,.1-.1h4.572V5.859h-4.572a.093.093,0,0,1-.1-.1V3.209a.092.092,0,0,1,.1-.1h4.572V.628h-7.153Z" transform="translate(-161.067 -0.49)"/><path class="a" d="M255.3.628V13.619h7.136V11.143h-4.555a.093.093,0,0,1-.1-.106v-2.6a.092.092,0,0,1,.1-.1h4.555V5.859h-4.555a.092.092,0,0,1-.1-.1V3.209a.092.092,0,0,1,.1-.1h4.555V.628H255.3Z" transform="translate(-199.235 -0.49)"/><path class="a" d="M305.435,6.635a6.622,6.622,0,0,0,6.633,6.632,6.691,6.691,0,0,0,5.387-2.3v-4.9h-5.664V8.453h3.083c.052,0,.069.018.069.052v1.49a4.093,4.093,0,0,1-2.684.812,4.227,4.227,0,0,1-4.348-4.172,4.169,4.169,0,0,1,4.157-4.158,5.522,5.522,0,0,1,3.048,1.109l1.525-1.975A7.438,7.438,0,0,0,312.068,0a6.623,6.623,0,0,0-6.633,6.635Z" transform="translate(-238.359)"/><path class="a" d="M372.818,6.635A6.634,6.634,0,1,0,379.452,0,6.623,6.623,0,0,0,372.818,6.635Zm2.477,0a4.157,4.157,0,1,1,4.157,4.156,4.17,4.17,0,0,1-4.157-4.156Z" transform="translate(-290.945 0)"/><path class="a" d="M449.965.553V13.561h6.825V11.084h-4.14a.184.184,0,0,1-.208-.207V.553h-2.477Z" transform="translate(-351.15 -0.432)"/><path class="a" d="M497.3.628V13.619h4.261a6.538,6.538,0,0,0,6.529-6.495,6.539,6.539,0,0,0-6.529-6.5H497.3Zm2.477,10.408V3.209a.091.091,0,0,1,.1-.1h1.783a3.791,3.791,0,0,1,3.949,4.018,3.874,3.874,0,0,1-4.053,4.018H499.88A.092.092,0,0,1,499.776,11.036Z" transform="translate(-388.089 -0.49)"/><path class="a" d="M18.355,27.278a3.829,3.829,0,0,1,0,1.279H19.3a5.288,5.288,0,0,1-8.626,3.425l-1.033.76A6.528,6.528,0,0,0,20.582,27.93q0-.33-.033-.652H20.1v0Z" transform="translate(-7.525 -21.286)"/><path class="a" d="M0,7.054q0,.307.028.606H2.581l-.008.022H2.72A3.862,3.862,0,0,0,10.338,6.4H9.355v0H6.134V7.682H9A2.549,2.549,0,1,1,8.006,5l1.1-.839A3.862,3.862,0,0,0,2.719,6.4H1.278a5.288,5.288,0,0,1,8.976-3.115l.983-.75A6.526,6.526,0,0,0,0,7.054Z" transform="translate(0 -0.41)"/></g></svg>