<svg xmlns="http://www.w3.org/2000/svg" xmlns:xlink="http://www.w3.org/1999/xlink" width="716.644" height="190.905" viewBox="0 0 716.644 190.905"><defs><style>.a{fill:url(#a);}.b{opacity:0.3;clip-path:url(#b);}.c{fill:none;stroke:#d2c060;stroke-miterlimit:10;stroke-width:1.261px;}</style><linearGradient id="a" x1="1.012" y1="-0.051" x2="-0.014" y2="0.993" gradientUnits="objectBoundingBox"><stop offset="0" stop-color="#00bbb4"/><stop offset="1" stop-color="#00998e"/></linearGradient><clipPath id="b"><rect class="a" width="716.644" height="190.905" rx="10"/></clipPath></defs><g class="b" transform="translate(0 0)"><g transform="translate(507.039 0)"><path class="c" d="M8.964-24.5,141.307-156.839,273.649-24.5,141.307,107.847Z" transform="translate(-8.964 156.839)"/><path class="c" d="M70.812-11.5,92.453-33.146,114.094-11.5,92.453,10.138Z" transform="translate(39.892 254.548)"/><path class="c" d="M33.146-72.8l22.89,22.89V-95.69Z" transform="translate(10.138 205.141)"/><path class="c" d="M142.763-72.8,119.87-95.69v45.782Z" transform="translate(78.645 205.141)"/><path class="c" d="M93-132.658l-22.89,22.89H115.9Z" transform="translate(39.339 175.939)"/><path class="c" d="M93-23.043,115.9-45.933H70.113Z" transform="translate(39.339 244.447)"/><path class="c" d="M45.933-119.87v43.278L89.216-119.87Z" transform="translate(20.239 186.041)"/><path class="c" d="M45.933-26.832H89.216L45.933-70.113Z" transform="translate(20.239 225.346)"/><path class="c" d="M138.972-70.113,95.69-26.832h43.281Z" transform="translate(59.544 225.346)"/><path class="c" d="M138.972-119.87H95.69l43.281,43.278Z" transform="translate(59.544 186.041)"/><path class="c" d="M178.275-76.592,134.994-119.87H89.215L45.934-76.592v45.778L89.215,12.471h45.778L178.275-30.81Z" transform="translate(20.241 186.041)"/></g></g></svg>