<svg xmlns="http://www.w3.org/2000/svg" xmlns:xlink="http://www.w3.org/1999/xlink" width="717" height="191" viewBox="0 0 717 191"><defs><style>.a{fill:url(#a);}.b{clip-path:url(#b);}.c{fill:none;stroke:#d2c060;stroke-miterlimit:10;stroke-width:1.261px;}</style><linearGradient id="a" x1="1.012" y1="-0.051" x2="-0.014" y2="0.993" gradientUnits="objectBoundingBox"><stop offset="0" stop-color="#00bbb4"/><stop offset="1" stop-color="#00998e"/></linearGradient><clipPath id="b"><rect class="a" width="717" height="191" rx="10" transform="translate(60 212)"/></clipPath></defs><g class="b" transform="translate(-60 -212)"><g transform="translate(633.928 424.731)"><path class="c" d="M8.964-62.231l94.608-94.608L198.18-62.231,103.572,32.377Z"/><path class="c" d="M70.812-17.674l15.47-15.472,15.47,15.47L86.283-2.2Z" transform="translate(17.291 34.581)"/><path class="c" d="M33.146-79.326,49.509-62.962V-95.69Z" transform="translate(6.76 17.095)"/><path class="c" d="M136.236-79.326,119.87-95.69v32.728Z" transform="translate(31.006 17.095)"/><path class="c" d="M86.477-132.658,70.113-116.295h32.728Z" transform="translate(17.095 6.76)"/><path class="c" d="M86.477-29.569l16.365-16.363H70.113Z" transform="translate(17.095 31.006)"/><path class="c" d="M45.933-119.87v30.938L76.875-119.87Z" transform="translate(10.335 10.335)"/><path class="c" d="M45.933-39.173H76.875L45.933-70.113Z" transform="translate(10.335 24.246)"/><path class="c" d="M126.631-70.113,95.69-39.173h30.941Z" transform="translate(24.246 24.246)"/><path class="c" d="M126.631-119.87H95.69l30.941,30.938Z" transform="translate(24.246 10.335)"/><path class="c" d="M140.541-88.932,109.6-119.87H76.875L45.934-88.932v32.726L76.875-25.263H109.6L140.541-56.2Z" transform="translate(10.336 10.335)"/></g></g></svg>