<svg xmlns="http://www.w3.org/2000/svg" width="31.31" height="25.332" viewBox="0 0 31.31 25.332"><defs><style>.a{fill:none;stroke:#d2c061;stroke-miterlimit:10;fill-rule:evenodd;}.b{fill:#d2c061;}</style></defs><g transform="translate(-9.267 -9.377)"><path class="a" d="M15.036,54.309l4.457-4.037c2.294.787,3.86-3.448,3.86-3.448h4.158c3.2-1.331,0-2.808,0-2.808H23.269l3.243-6.257H19.028l-4.242,8.483-4.736,4.03Z" transform="translate(0 -20.259)"/><path class="a" d="M62.267,17.9l4.047-7.854,9.537,4.914L67.265,31.628l-6.243-3.217-1.805-.93" transform="translate(-35.948)"/><path class="b" d="M87.216,31.613c-.255-.131-.511-.261-.764-.4a.157.157,0,0,1-.058-.1c-.242-1.05-.472-2.1-.729-3.148a.894.894,0,0,1,.1-.8.9.9,0,0,0,.064-.122c.213.11.414.227.626.319a2.01,2.01,0,0,0,1.2.194,1,1,0,0,0,.7-.524l-2.181-1.124c.214-.118.409-.228.608-.332.024-.012.071.007.1.023q.781.4,1.56.8l.119.061a1.489,1.489,0,0,0-.01-.176,1.2,1.2,0,0,0-.508-.778,6.681,6.681,0,0,0-.667-.4c-.193-.108-.392-.2-.61-.316.218-.122.408-.229.6-.331a.108.108,0,0,1,.084.006q1.777.908,3.553,1.82a.262.262,0,0,1,.031.026c-.2.112-.388.224-.582.328-.024.013-.071,0-.1-.018-.269-.136-.536-.274-.8-.412l-.083-.043c-.007.246-.014.488-.021.746l1.018.525-.273.157c-.116.065-.231.177-.349.18a.962.962,0,0,1-.372-.159c-.1-.051-.206-.105-.307-.157a1.991,1.991,0,0,1-2.611.449c.007.047.012.084.019.122q.338,1.658.674,3.317a1.814,1.814,0,0,1,.017.23l-.05.027" transform="translate(-55.252 -10.54)"/></g></svg>