<svg xmlns="http://www.w3.org/2000/svg" width="30" height="30" viewBox="0 0 30 30"><defs><style>.a{fill:#bf9f41;}</style></defs><path class="a" d="M12.6.147a.5.5,0,0,0-.512-.121L3.9,2.758,1.357.218A.5.5,0,0,0,.649.925l2.539,2.54L.457,11.659a.5.5,0,0,0,.121.512L18.261,29.854a.5.5,0,0,0,.707,0L30.285,18.537a.5.5,0,0,0,0-.707Zm6.012,28.646L1.5,11.682,3.979,4.256,5.918,6.195a2.5,2.5,0,1,0,.707-.707L4.687,3.548l7.427-2.477,17.111,17.11ZM7.651,7.927a.5.5,0,0,0,.707-.707l-1-1a1.484,1.484,0,0,1,1.7.288,1.506,1.506,0,1,1-2.412.418Zm0,0" transform="translate(-0.432 0)"/></svg>